<mxfile host="Electron" modified="2023-10-09T17:02:13.013Z" agent="Mozilla/5.0 (Windows NT 10.0; Win64; x64) AppleWebKit/537.36 (KHTML, like Gecko) draw.io/21.7.5 Chrome/114.0.5735.289 Electron/25.8.1 Safari/537.36" etag="OT8K1IjNVLghm54qhT42" version="21.7.5" type="device">
  <diagram name="Pagina-1" id="lFex2iN6SyLddcQQyBaV">
    <mxGraphModel dx="978" dy="571" grid="1" gridSize="10" guides="1" tooltips="1" connect="1" arrows="1" fold="1" page="1" pageScale="1" pageWidth="827" pageHeight="1169" math="0" shadow="0">
      <root>
        <mxCell id="0" />
        <mxCell id="1" parent="0" />
        <mxCell id="25JmZB_oEXcPH6vsWVm2-237" value="" style="endArrow=classic;html=1;rounded=0;" parent="1" edge="1">
          <mxGeometry width="50" height="50" relative="1" as="geometry">
            <mxPoint x="160" y="2480" as="sourcePoint" />
            <mxPoint x="560" y="2480" as="targetPoint" />
          </mxGeometry>
        </mxCell>
        <mxCell id="25JmZB_oEXcPH6vsWVm2-224" value="" style="endArrow=classic;html=1;rounded=0;" parent="1" edge="1">
          <mxGeometry width="50" height="50" relative="1" as="geometry">
            <mxPoint x="160" y="2200" as="sourcePoint" />
            <mxPoint x="560" y="2200" as="targetPoint" />
          </mxGeometry>
        </mxCell>
        <mxCell id="25JmZB_oEXcPH6vsWVm2-203" value="" style="ellipse;whiteSpace=wrap;html=1;aspect=fixed;fillColor=#f8cecc;strokeColor=#b85450;" parent="1" vertex="1">
          <mxGeometry x="976" y="1484.31" width="30" height="30" as="geometry" />
        </mxCell>
        <mxCell id="25JmZB_oEXcPH6vsWVm2-204" value="" style="ellipse;whiteSpace=wrap;html=1;aspect=fixed;fillColor=#f8cecc;strokeColor=#b85450;" parent="1" vertex="1">
          <mxGeometry x="916" y="1424.31" width="30" height="30" as="geometry" />
        </mxCell>
        <mxCell id="25JmZB_oEXcPH6vsWVm2-194" value="" style="ellipse;whiteSpace=wrap;html=1;aspect=fixed;fillColor=#f8cecc;strokeColor=#b85450;" parent="1" vertex="1">
          <mxGeometry x="265" y="1385" width="30" height="30" as="geometry" />
        </mxCell>
        <mxCell id="25JmZB_oEXcPH6vsWVm2-195" value="" style="ellipse;whiteSpace=wrap;html=1;aspect=fixed;fillColor=#f8cecc;strokeColor=#b85450;" parent="1" vertex="1">
          <mxGeometry x="295" y="1354.31" width="30" height="30" as="geometry" />
        </mxCell>
        <mxCell id="25JmZB_oEXcPH6vsWVm2-196" value="" style="ellipse;whiteSpace=wrap;html=1;aspect=fixed;fillColor=#f8cecc;strokeColor=#b85450;" parent="1" vertex="1">
          <mxGeometry x="355" y="1425" width="30" height="30" as="geometry" />
        </mxCell>
        <mxCell id="25JmZB_oEXcPH6vsWVm2-197" value="" style="ellipse;whiteSpace=wrap;html=1;aspect=fixed;fillColor=#f8cecc;strokeColor=#b85450;" parent="1" vertex="1">
          <mxGeometry x="305" y="1425" width="30" height="30" as="geometry" />
        </mxCell>
        <mxCell id="25JmZB_oEXcPH6vsWVm2-198" value="" style="ellipse;whiteSpace=wrap;html=1;aspect=fixed;fillColor=#f8cecc;strokeColor=#b85450;" parent="1" vertex="1">
          <mxGeometry x="415" y="1484.31" width="30" height="30" as="geometry" />
        </mxCell>
        <mxCell id="25JmZB_oEXcPH6vsWVm2-200" value="" style="ellipse;whiteSpace=wrap;html=1;aspect=fixed;fillColor=#f8cecc;strokeColor=#b85450;" parent="1" vertex="1">
          <mxGeometry x="344" y="1464.31" width="30" height="30" as="geometry" />
        </mxCell>
        <mxCell id="25JmZB_oEXcPH6vsWVm2-124" value="" style="ellipse;whiteSpace=wrap;html=1;aspect=fixed;fillColor=#f8cecc;strokeColor=#b85450;" parent="1" vertex="1">
          <mxGeometry x="315" y="1375" width="30" height="30" as="geometry" />
        </mxCell>
        <mxCell id="25JmZB_oEXcPH6vsWVm2-125" value="" style="ellipse;whiteSpace=wrap;html=1;aspect=fixed;fillColor=#f8cecc;strokeColor=#b85450;" parent="1" vertex="1">
          <mxGeometry x="355" y="1395" width="30" height="30" as="geometry" />
        </mxCell>
        <mxCell id="25JmZB_oEXcPH6vsWVm2-126" value="" style="ellipse;whiteSpace=wrap;html=1;aspect=fixed;fillColor=#f8cecc;strokeColor=#b85450;" parent="1" vertex="1">
          <mxGeometry x="374" y="1435" width="30" height="30" as="geometry" />
        </mxCell>
        <mxCell id="25JmZB_oEXcPH6vsWVm2-127" value="" style="ellipse;whiteSpace=wrap;html=1;aspect=fixed;fillColor=#f8cecc;strokeColor=#b85450;" parent="1" vertex="1">
          <mxGeometry x="405" y="1445" width="30" height="30" as="geometry" />
        </mxCell>
        <mxCell id="25JmZB_oEXcPH6vsWVm2-120" value="" style="ellipse;whiteSpace=wrap;html=1;aspect=fixed;fillColor=#f8cecc;strokeColor=#b85450;" parent="1" vertex="1">
          <mxGeometry x="275" y="1435" width="30" height="30" as="geometry" />
        </mxCell>
        <mxCell id="25JmZB_oEXcPH6vsWVm2-121" value="" style="ellipse;whiteSpace=wrap;html=1;aspect=fixed;fillColor=#f8cecc;strokeColor=#b85450;" parent="1" vertex="1">
          <mxGeometry x="295" y="1395" width="30" height="30" as="geometry" />
        </mxCell>
        <mxCell id="25JmZB_oEXcPH6vsWVm2-122" value="" style="ellipse;whiteSpace=wrap;html=1;aspect=fixed;fillColor=#f8cecc;strokeColor=#b85450;" parent="1" vertex="1">
          <mxGeometry x="325" y="1425" width="30" height="30" as="geometry" />
        </mxCell>
        <mxCell id="25JmZB_oEXcPH6vsWVm2-123" value="" style="ellipse;whiteSpace=wrap;html=1;aspect=fixed;fillColor=#f8cecc;strokeColor=#b85450;" parent="1" vertex="1">
          <mxGeometry x="380" y="1475" width="30" height="30" as="geometry" />
        </mxCell>
        <mxCell id="25JmZB_oEXcPH6vsWVm2-119" value="" style="ellipse;whiteSpace=wrap;html=1;aspect=fixed;fillColor=#f8cecc;strokeColor=#b85450;" parent="1" vertex="1">
          <mxGeometry x="245" y="1365" width="30" height="30" as="geometry" />
        </mxCell>
        <mxCell id="25JmZB_oEXcPH6vsWVm2-54" value="" style="ellipse;whiteSpace=wrap;html=1;aspect=fixed;fillColor=#fff2cc;strokeColor=#d6b656;" parent="1" vertex="1">
          <mxGeometry x="380" y="725" width="30" height="30" as="geometry" />
        </mxCell>
        <mxCell id="2-MtceUScul4lDz0E45P-63" value="" style="ellipse;whiteSpace=wrap;html=1;aspect=fixed;fillColor=#f8cecc;strokeColor=#b85450;" parent="1" vertex="1">
          <mxGeometry x="355" y="375" width="30" height="30" as="geometry" />
        </mxCell>
        <mxCell id="2-MtceUScul4lDz0E45P-61" value="" style="ellipse;whiteSpace=wrap;html=1;aspect=fixed;fillColor=#f8cecc;strokeColor=#b85450;" parent="1" vertex="1">
          <mxGeometry x="409" y="325" width="30" height="30" as="geometry" />
        </mxCell>
        <mxCell id="2-MtceUScul4lDz0E45P-1" value="" style="endArrow=classic;html=1;rounded=0;" parent="1" edge="1">
          <mxGeometry width="50" height="50" relative="1" as="geometry">
            <mxPoint x="120" y="520" as="sourcePoint" />
            <mxPoint x="120" y="80" as="targetPoint" />
          </mxGeometry>
        </mxCell>
        <mxCell id="2-MtceUScul4lDz0E45P-2" value="" style="endArrow=classic;html=1;rounded=0;" parent="1" edge="1">
          <mxGeometry width="50" height="50" relative="1" as="geometry">
            <mxPoint x="120" y="520" as="sourcePoint" />
            <mxPoint x="650" y="520" as="targetPoint" />
          </mxGeometry>
        </mxCell>
        <mxCell id="2-MtceUScul4lDz0E45P-20" value="" style="rhombus;whiteSpace=wrap;html=1;fillColor=#00FF00;strokeColor=#006633;" parent="1" vertex="1">
          <mxGeometry x="210" y="440" width="20" height="20" as="geometry" />
        </mxCell>
        <mxCell id="2-MtceUScul4lDz0E45P-21" value="" style="rhombus;whiteSpace=wrap;html=1;fillColor=#00FF00;strokeColor=#006633;" parent="1" vertex="1">
          <mxGeometry x="200" y="320" width="20" height="20" as="geometry" />
        </mxCell>
        <mxCell id="2-MtceUScul4lDz0E45P-22" value="" style="rhombus;whiteSpace=wrap;html=1;fillColor=#00FF00;strokeColor=#006633;" parent="1" vertex="1">
          <mxGeometry x="230" y="380" width="20" height="20" as="geometry" />
        </mxCell>
        <mxCell id="2-MtceUScul4lDz0E45P-23" value="" style="rhombus;whiteSpace=wrap;html=1;fillColor=#00FF00;strokeColor=#006633;" parent="1" vertex="1">
          <mxGeometry x="300" y="420" width="20" height="20" as="geometry" />
        </mxCell>
        <mxCell id="2-MtceUScul4lDz0E45P-24" value="" style="rhombus;whiteSpace=wrap;html=1;fillColor=#00FF00;strokeColor=#006633;" parent="1" vertex="1">
          <mxGeometry x="260" y="420" width="20" height="20" as="geometry" />
        </mxCell>
        <mxCell id="2-MtceUScul4lDz0E45P-25" value="" style="rhombus;whiteSpace=wrap;html=1;fillColor=#00FF00;strokeColor=#006633;" parent="1" vertex="1">
          <mxGeometry x="310" y="390" width="20" height="20" as="geometry" />
        </mxCell>
        <mxCell id="2-MtceUScul4lDz0E45P-26" value="" style="rhombus;whiteSpace=wrap;html=1;fillColor=#00FF00;strokeColor=#006633;" parent="1" vertex="1">
          <mxGeometry x="220" y="410" width="20" height="20" as="geometry" />
        </mxCell>
        <mxCell id="2-MtceUScul4lDz0E45P-27" value="" style="rhombus;whiteSpace=wrap;html=1;fillColor=#00FF00;strokeColor=#006633;" parent="1" vertex="1">
          <mxGeometry x="250" y="350" width="20" height="20" as="geometry" />
        </mxCell>
        <mxCell id="2-MtceUScul4lDz0E45P-28" value="" style="rhombus;whiteSpace=wrap;html=1;fillColor=#00FF00;strokeColor=#006633;" parent="1" vertex="1">
          <mxGeometry x="290" y="370" width="20" height="20" as="geometry" />
        </mxCell>
        <mxCell id="2-MtceUScul4lDz0E45P-29" value="" style="rhombus;whiteSpace=wrap;html=1;fillColor=#00FF00;strokeColor=#006633;" parent="1" vertex="1">
          <mxGeometry x="190" y="390" width="20" height="20" as="geometry" />
        </mxCell>
        <mxCell id="2-MtceUScul4lDz0E45P-30" value="" style="rhombus;whiteSpace=wrap;html=1;fillColor=#00FF00;strokeColor=#006633;" parent="1" vertex="1">
          <mxGeometry x="240" y="320" width="20" height="20" as="geometry" />
        </mxCell>
        <mxCell id="2-MtceUScul4lDz0E45P-31" value="" style="rhombus;whiteSpace=wrap;html=1;fillColor=#00FF00;strokeColor=#006633;" parent="1" vertex="1">
          <mxGeometry x="190" y="420" width="20" height="20" as="geometry" />
        </mxCell>
        <mxCell id="2-MtceUScul4lDz0E45P-32" value="" style="rhombus;whiteSpace=wrap;html=1;fillColor=#00FF00;strokeColor=#006633;" parent="1" vertex="1">
          <mxGeometry x="170" y="360" width="20" height="20" as="geometry" />
        </mxCell>
        <mxCell id="2-MtceUScul4lDz0E45P-36" value="" style="endArrow=none;html=1;rounded=0;strokeWidth=3;" parent="1" edge="1">
          <mxGeometry width="50" height="50" relative="1" as="geometry">
            <mxPoint x="120" y="140" as="sourcePoint" />
            <mxPoint x="590" y="520" as="targetPoint" />
          </mxGeometry>
        </mxCell>
        <mxCell id="2-MtceUScul4lDz0E45P-37" value="" style="endArrow=none;dashed=1;html=1;rounded=0;" parent="1" edge="1">
          <mxGeometry width="50" height="50" relative="1" as="geometry">
            <mxPoint x="120" y="190" as="sourcePoint" />
            <mxPoint x="540" y="520" as="targetPoint" />
          </mxGeometry>
        </mxCell>
        <mxCell id="2-MtceUScul4lDz0E45P-40" value="" style="rhombus;whiteSpace=wrap;html=1;fillColor=#00FF00;strokeColor=#006633;" parent="1" vertex="1">
          <mxGeometry x="360" y="380" width="20" height="20" as="geometry" />
        </mxCell>
        <mxCell id="2-MtceUScul4lDz0E45P-41" value="" style="endArrow=none;dashed=1;html=1;rounded=0;" parent="1" source="2-MtceUScul4lDz0E45P-43" edge="1">
          <mxGeometry width="50" height="50" relative="1" as="geometry">
            <mxPoint x="210" y="170" as="sourcePoint" />
            <mxPoint x="640" y="520" as="targetPoint" />
          </mxGeometry>
        </mxCell>
        <mxCell id="2-MtceUScul4lDz0E45P-44" value="" style="endArrow=none;dashed=1;html=1;rounded=0;" parent="1" target="2-MtceUScul4lDz0E45P-43" edge="1">
          <mxGeometry width="50" height="50" relative="1" as="geometry">
            <mxPoint x="120" y="100" as="sourcePoint" />
            <mxPoint x="520" y="420" as="targetPoint" />
          </mxGeometry>
        </mxCell>
        <mxCell id="2-MtceUScul4lDz0E45P-43" value="" style="ellipse;whiteSpace=wrap;html=1;aspect=fixed;fillColor=#0000FF;strokeColor=#000099;" parent="1" vertex="1">
          <mxGeometry x="414" y="330" width="20" height="20" as="geometry" />
        </mxCell>
        <mxCell id="2-MtceUScul4lDz0E45P-45" value="" style="ellipse;whiteSpace=wrap;html=1;aspect=fixed;fillColor=#0000FF;strokeColor=#000099;" parent="1" vertex="1">
          <mxGeometry x="404" y="240" width="20" height="20" as="geometry" />
        </mxCell>
        <mxCell id="2-MtceUScul4lDz0E45P-46" value="" style="ellipse;whiteSpace=wrap;html=1;aspect=fixed;fillColor=#0000FF;strokeColor=#000099;" parent="1" vertex="1">
          <mxGeometry x="330" y="220" width="20" height="20" as="geometry" />
        </mxCell>
        <mxCell id="2-MtceUScul4lDz0E45P-47" value="" style="ellipse;whiteSpace=wrap;html=1;aspect=fixed;fillColor=#0000FF;strokeColor=#000099;" parent="1" vertex="1">
          <mxGeometry x="404" y="280" width="20" height="20" as="geometry" />
        </mxCell>
        <mxCell id="2-MtceUScul4lDz0E45P-48" value="" style="ellipse;whiteSpace=wrap;html=1;aspect=fixed;fillColor=#0000FF;strokeColor=#000099;" parent="1" vertex="1">
          <mxGeometry x="360" y="260" width="20" height="20" as="geometry" />
        </mxCell>
        <mxCell id="2-MtceUScul4lDz0E45P-49" value="" style="ellipse;whiteSpace=wrap;html=1;aspect=fixed;fillColor=#0000FF;strokeColor=#000099;" parent="1" vertex="1">
          <mxGeometry x="434" y="200" width="20" height="20" as="geometry" />
        </mxCell>
        <mxCell id="2-MtceUScul4lDz0E45P-50" value="" style="ellipse;whiteSpace=wrap;html=1;aspect=fixed;fillColor=#0000FF;strokeColor=#000099;" parent="1" vertex="1">
          <mxGeometry x="404" y="200" width="20" height="20" as="geometry" />
        </mxCell>
        <mxCell id="2-MtceUScul4lDz0E45P-51" value="" style="ellipse;whiteSpace=wrap;html=1;aspect=fixed;fillColor=#0000FF;strokeColor=#000099;" parent="1" vertex="1">
          <mxGeometry x="360" y="190" width="20" height="20" as="geometry" />
        </mxCell>
        <mxCell id="2-MtceUScul4lDz0E45P-52" value="" style="ellipse;whiteSpace=wrap;html=1;aspect=fixed;fillColor=#0000FF;strokeColor=#000099;" parent="1" vertex="1">
          <mxGeometry x="444" y="270" width="20" height="20" as="geometry" />
        </mxCell>
        <mxCell id="2-MtceUScul4lDz0E45P-53" value="" style="ellipse;whiteSpace=wrap;html=1;aspect=fixed;fillColor=#0000FF;strokeColor=#000099;" parent="1" vertex="1">
          <mxGeometry x="370" y="230" width="20" height="20" as="geometry" />
        </mxCell>
        <mxCell id="2-MtceUScul4lDz0E45P-54" value="" style="ellipse;whiteSpace=wrap;html=1;aspect=fixed;fillColor=#0000FF;strokeColor=#000099;" parent="1" vertex="1">
          <mxGeometry x="414" y="300" width="20" height="20" as="geometry" />
        </mxCell>
        <mxCell id="2-MtceUScul4lDz0E45P-55" value="" style="ellipse;whiteSpace=wrap;html=1;aspect=fixed;fillColor=#0000FF;strokeColor=#000099;" parent="1" vertex="1">
          <mxGeometry x="444" y="230" width="20" height="20" as="geometry" />
        </mxCell>
        <mxCell id="2-MtceUScul4lDz0E45P-56" value="" style="ellipse;whiteSpace=wrap;html=1;aspect=fixed;fillColor=#0000FF;strokeColor=#000099;" parent="1" vertex="1">
          <mxGeometry x="290" y="140" width="20" height="20" as="geometry" />
        </mxCell>
        <mxCell id="2-MtceUScul4lDz0E45P-57" value="" style="ellipse;whiteSpace=wrap;html=1;aspect=fixed;fillColor=#0000FF;strokeColor=#000099;" parent="1" vertex="1">
          <mxGeometry x="270" y="180" width="20" height="20" as="geometry" />
        </mxCell>
        <mxCell id="2-MtceUScul4lDz0E45P-58" value="" style="rhombus;whiteSpace=wrap;html=1;fillColor=#00FF00;strokeColor=#006633;" parent="1" vertex="1">
          <mxGeometry x="160" y="310" width="20" height="20" as="geometry" />
        </mxCell>
        <mxCell id="2-MtceUScul4lDz0E45P-59" value="" style="rhombus;whiteSpace=wrap;html=1;fillColor=#00FF00;strokeColor=#006633;" parent="1" vertex="1">
          <mxGeometry x="404" y="460" width="20" height="20" as="geometry" />
        </mxCell>
        <mxCell id="2-MtceUScul4lDz0E45P-60" value="" style="rhombus;whiteSpace=wrap;html=1;fillColor=#00FF00;strokeColor=#006633;" parent="1" vertex="1">
          <mxGeometry x="130" y="440" width="20" height="20" as="geometry" />
        </mxCell>
        <mxCell id="2-MtceUScul4lDz0E45P-62" value="" style="rhombus;whiteSpace=wrap;html=1;fillColor=#00FF00;strokeColor=#006633;" parent="1" vertex="1">
          <mxGeometry x="300" y="460" width="20" height="20" as="geometry" />
        </mxCell>
        <mxCell id="2-MtceUScul4lDz0E45P-71" value="Support Vectors" style="text;html=1;align=center;verticalAlign=middle;whiteSpace=wrap;rounded=0;strokeColor=default;fontStyle=1" parent="1" vertex="1">
          <mxGeometry x="550" y="325" width="60" height="30" as="geometry" />
        </mxCell>
        <mxCell id="2-MtceUScul4lDz0E45P-74" value="" style="group" parent="1" vertex="1" connectable="0">
          <mxGeometry x="520" y="100" width="90" height="70" as="geometry" />
        </mxCell>
        <mxCell id="2-MtceUScul4lDz0E45P-73" value="" style="rounded=0;whiteSpace=wrap;html=1;" parent="2-MtceUScul4lDz0E45P-74" vertex="1">
          <mxGeometry width="90" height="70" as="geometry" />
        </mxCell>
        <mxCell id="2-MtceUScul4lDz0E45P-64" value="" style="ellipse;whiteSpace=wrap;html=1;aspect=fixed;fillColor=#0000FF;strokeColor=#000099;" parent="2-MtceUScul4lDz0E45P-74" vertex="1">
          <mxGeometry x="10" y="10" width="20" height="20" as="geometry" />
        </mxCell>
        <mxCell id="2-MtceUScul4lDz0E45P-65" value="" style="rhombus;whiteSpace=wrap;html=1;fillColor=#00FF00;strokeColor=#006633;" parent="2-MtceUScul4lDz0E45P-74" vertex="1">
          <mxGeometry x="10" y="40" width="20" height="20" as="geometry" />
        </mxCell>
        <mxCell id="2-MtceUScul4lDz0E45P-66" value="Class A" style="text;html=1;strokeColor=none;fillColor=none;align=center;verticalAlign=middle;whiteSpace=wrap;rounded=0;fontStyle=1" parent="2-MtceUScul4lDz0E45P-74" vertex="1">
          <mxGeometry x="30" y="10" width="60" height="20" as="geometry" />
        </mxCell>
        <mxCell id="2-MtceUScul4lDz0E45P-67" value="Class B" style="text;html=1;strokeColor=none;fillColor=none;align=center;verticalAlign=middle;whiteSpace=wrap;rounded=0;fontStyle=1" parent="2-MtceUScul4lDz0E45P-74" vertex="1">
          <mxGeometry x="30" y="40" width="60" height="20" as="geometry" />
        </mxCell>
        <mxCell id="2-MtceUScul4lDz0E45P-75" value="" style="endArrow=classic;html=1;rounded=0;exitX=0;exitY=0.5;exitDx=0;exitDy=0;entryX=1;entryY=0.5;entryDx=0;entryDy=0;" parent="1" source="2-MtceUScul4lDz0E45P-71" target="2-MtceUScul4lDz0E45P-43" edge="1">
          <mxGeometry width="50" height="50" relative="1" as="geometry">
            <mxPoint x="540" y="335" as="sourcePoint" />
            <mxPoint x="440" y="340" as="targetPoint" />
          </mxGeometry>
        </mxCell>
        <mxCell id="2-MtceUScul4lDz0E45P-76" value="" style="endArrow=classic;html=1;rounded=0;exitX=-0.052;exitY=0.486;exitDx=0;exitDy=0;exitPerimeter=0;entryX=1;entryY=0.5;entryDx=0;entryDy=0;" parent="1" source="2-MtceUScul4lDz0E45P-71" target="2-MtceUScul4lDz0E45P-40" edge="1">
          <mxGeometry width="50" height="50" relative="1" as="geometry">
            <mxPoint x="410" y="360" as="sourcePoint" />
            <mxPoint x="460" y="310" as="targetPoint" />
          </mxGeometry>
        </mxCell>
        <mxCell id="2-MtceUScul4lDz0E45P-77" value="Feature 1" style="text;html=1;strokeColor=none;fillColor=none;align=center;verticalAlign=middle;whiteSpace=wrap;rounded=0;" parent="1" vertex="1">
          <mxGeometry x="580" y="520" width="60" height="30" as="geometry" />
        </mxCell>
        <mxCell id="2-MtceUScul4lDz0E45P-78" value="Feature 2" style="text;html=1;strokeColor=none;fillColor=none;align=center;verticalAlign=middle;whiteSpace=wrap;rounded=0;direction=south;horizontal=0;" parent="1" vertex="1">
          <mxGeometry x="90" y="95" width="30" height="60" as="geometry" />
        </mxCell>
        <mxCell id="25JmZB_oEXcPH6vsWVm2-1" value="" style="ellipse;whiteSpace=wrap;html=1;aspect=fixed;fillColor=#f8cecc;strokeColor=#b85450;" parent="1" vertex="1">
          <mxGeometry x="385" y="945" width="30" height="30" as="geometry" />
        </mxCell>
        <mxCell id="25JmZB_oEXcPH6vsWVm2-2" value="" style="ellipse;whiteSpace=wrap;html=1;aspect=fixed;fillColor=#f8cecc;strokeColor=#b85450;" parent="1" vertex="1">
          <mxGeometry x="439" y="895" width="30" height="30" as="geometry" />
        </mxCell>
        <mxCell id="25JmZB_oEXcPH6vsWVm2-3" value="" style="endArrow=classic;html=1;rounded=0;" parent="1" edge="1">
          <mxGeometry width="50" height="50" relative="1" as="geometry">
            <mxPoint x="150" y="1090" as="sourcePoint" />
            <mxPoint x="150" y="650" as="targetPoint" />
          </mxGeometry>
        </mxCell>
        <mxCell id="25JmZB_oEXcPH6vsWVm2-4" value="" style="endArrow=classic;html=1;rounded=0;" parent="1" edge="1">
          <mxGeometry width="50" height="50" relative="1" as="geometry">
            <mxPoint x="150" y="1090" as="sourcePoint" />
            <mxPoint x="680" y="1090" as="targetPoint" />
          </mxGeometry>
        </mxCell>
        <mxCell id="25JmZB_oEXcPH6vsWVm2-5" value="" style="rhombus;whiteSpace=wrap;html=1;fillColor=#00FF00;strokeColor=#006633;" parent="1" vertex="1">
          <mxGeometry x="240" y="1010" width="20" height="20" as="geometry" />
        </mxCell>
        <mxCell id="25JmZB_oEXcPH6vsWVm2-6" value="" style="rhombus;whiteSpace=wrap;html=1;fillColor=#00FF00;strokeColor=#006633;" parent="1" vertex="1">
          <mxGeometry x="230" y="890" width="20" height="20" as="geometry" />
        </mxCell>
        <mxCell id="25JmZB_oEXcPH6vsWVm2-7" value="" style="rhombus;whiteSpace=wrap;html=1;fillColor=#00FF00;strokeColor=#006633;" parent="1" vertex="1">
          <mxGeometry x="260" y="950" width="20" height="20" as="geometry" />
        </mxCell>
        <mxCell id="25JmZB_oEXcPH6vsWVm2-8" value="" style="rhombus;whiteSpace=wrap;html=1;fillColor=#00FF00;strokeColor=#006633;" parent="1" vertex="1">
          <mxGeometry x="330" y="990" width="20" height="20" as="geometry" />
        </mxCell>
        <mxCell id="25JmZB_oEXcPH6vsWVm2-9" value="" style="rhombus;whiteSpace=wrap;html=1;fillColor=#00FF00;strokeColor=#006633;" parent="1" vertex="1">
          <mxGeometry x="290" y="990" width="20" height="20" as="geometry" />
        </mxCell>
        <mxCell id="25JmZB_oEXcPH6vsWVm2-10" value="" style="rhombus;whiteSpace=wrap;html=1;fillColor=#00FF00;strokeColor=#006633;" parent="1" vertex="1">
          <mxGeometry x="340" y="960" width="20" height="20" as="geometry" />
        </mxCell>
        <mxCell id="25JmZB_oEXcPH6vsWVm2-11" value="" style="rhombus;whiteSpace=wrap;html=1;fillColor=#00FF00;strokeColor=#006633;" parent="1" vertex="1">
          <mxGeometry x="250" y="980" width="20" height="20" as="geometry" />
        </mxCell>
        <mxCell id="25JmZB_oEXcPH6vsWVm2-12" value="" style="rhombus;whiteSpace=wrap;html=1;fillColor=#00FF00;strokeColor=#006633;" parent="1" vertex="1">
          <mxGeometry x="280" y="920" width="20" height="20" as="geometry" />
        </mxCell>
        <mxCell id="25JmZB_oEXcPH6vsWVm2-13" value="" style="rhombus;whiteSpace=wrap;html=1;fillColor=#00FF00;strokeColor=#006633;" parent="1" vertex="1">
          <mxGeometry x="320" y="940" width="20" height="20" as="geometry" />
        </mxCell>
        <mxCell id="25JmZB_oEXcPH6vsWVm2-14" value="" style="rhombus;whiteSpace=wrap;html=1;fillColor=#00FF00;strokeColor=#006633;" parent="1" vertex="1">
          <mxGeometry x="220" y="960" width="20" height="20" as="geometry" />
        </mxCell>
        <mxCell id="25JmZB_oEXcPH6vsWVm2-15" value="" style="rhombus;whiteSpace=wrap;html=1;fillColor=#00FF00;strokeColor=#006633;" parent="1" vertex="1">
          <mxGeometry x="270" y="890" width="20" height="20" as="geometry" />
        </mxCell>
        <mxCell id="25JmZB_oEXcPH6vsWVm2-16" value="" style="rhombus;whiteSpace=wrap;html=1;fillColor=#00FF00;strokeColor=#006633;" parent="1" vertex="1">
          <mxGeometry x="220" y="990" width="20" height="20" as="geometry" />
        </mxCell>
        <mxCell id="25JmZB_oEXcPH6vsWVm2-17" value="" style="rhombus;whiteSpace=wrap;html=1;fillColor=#00FF00;strokeColor=#006633;" parent="1" vertex="1">
          <mxGeometry x="200" y="930" width="20" height="20" as="geometry" />
        </mxCell>
        <mxCell id="25JmZB_oEXcPH6vsWVm2-18" value="" style="endArrow=none;html=1;rounded=0;strokeWidth=3;" parent="1" edge="1">
          <mxGeometry width="50" height="50" relative="1" as="geometry">
            <mxPoint x="150" y="710" as="sourcePoint" />
            <mxPoint x="620" y="1090" as="targetPoint" />
          </mxGeometry>
        </mxCell>
        <mxCell id="25JmZB_oEXcPH6vsWVm2-19" value="" style="endArrow=none;dashed=1;html=1;rounded=0;" parent="1" edge="1">
          <mxGeometry width="50" height="50" relative="1" as="geometry">
            <mxPoint x="150" y="760" as="sourcePoint" />
            <mxPoint x="570" y="1090" as="targetPoint" />
          </mxGeometry>
        </mxCell>
        <mxCell id="25JmZB_oEXcPH6vsWVm2-20" value="" style="rhombus;whiteSpace=wrap;html=1;fillColor=#00FF00;strokeColor=#006633;" parent="1" vertex="1">
          <mxGeometry x="390" y="950" width="20" height="20" as="geometry" />
        </mxCell>
        <mxCell id="25JmZB_oEXcPH6vsWVm2-21" value="" style="endArrow=none;dashed=1;html=1;rounded=0;" parent="1" source="25JmZB_oEXcPH6vsWVm2-23" edge="1">
          <mxGeometry width="50" height="50" relative="1" as="geometry">
            <mxPoint x="240" y="740" as="sourcePoint" />
            <mxPoint x="670" y="1090" as="targetPoint" />
          </mxGeometry>
        </mxCell>
        <mxCell id="25JmZB_oEXcPH6vsWVm2-22" value="" style="endArrow=none;dashed=1;html=1;rounded=0;" parent="1" target="25JmZB_oEXcPH6vsWVm2-23" edge="1">
          <mxGeometry width="50" height="50" relative="1" as="geometry">
            <mxPoint x="150" y="670" as="sourcePoint" />
            <mxPoint x="550" y="990" as="targetPoint" />
          </mxGeometry>
        </mxCell>
        <mxCell id="25JmZB_oEXcPH6vsWVm2-23" value="" style="ellipse;whiteSpace=wrap;html=1;aspect=fixed;fillColor=#0000FF;strokeColor=#000099;" parent="1" vertex="1">
          <mxGeometry x="444" y="900" width="20" height="20" as="geometry" />
        </mxCell>
        <mxCell id="25JmZB_oEXcPH6vsWVm2-24" value="" style="ellipse;whiteSpace=wrap;html=1;aspect=fixed;fillColor=#0000FF;strokeColor=#000099;" parent="1" vertex="1">
          <mxGeometry x="434" y="810" width="20" height="20" as="geometry" />
        </mxCell>
        <mxCell id="25JmZB_oEXcPH6vsWVm2-25" value="" style="ellipse;whiteSpace=wrap;html=1;aspect=fixed;fillColor=#0000FF;strokeColor=#000099;" parent="1" vertex="1">
          <mxGeometry x="360" y="790" width="20" height="20" as="geometry" />
        </mxCell>
        <mxCell id="25JmZB_oEXcPH6vsWVm2-26" value="" style="ellipse;whiteSpace=wrap;html=1;aspect=fixed;fillColor=#0000FF;strokeColor=#000099;" parent="1" vertex="1">
          <mxGeometry x="434" y="850" width="20" height="20" as="geometry" />
        </mxCell>
        <mxCell id="25JmZB_oEXcPH6vsWVm2-27" value="" style="ellipse;whiteSpace=wrap;html=1;aspect=fixed;fillColor=#0000FF;strokeColor=#000099;" parent="1" vertex="1">
          <mxGeometry x="390" y="830" width="20" height="20" as="geometry" />
        </mxCell>
        <mxCell id="25JmZB_oEXcPH6vsWVm2-28" value="" style="ellipse;whiteSpace=wrap;html=1;aspect=fixed;fillColor=#0000FF;strokeColor=#000099;" parent="1" vertex="1">
          <mxGeometry x="464" y="770" width="20" height="20" as="geometry" />
        </mxCell>
        <mxCell id="25JmZB_oEXcPH6vsWVm2-29" value="" style="ellipse;whiteSpace=wrap;html=1;aspect=fixed;fillColor=#0000FF;strokeColor=#000099;" parent="1" vertex="1">
          <mxGeometry x="434" y="770" width="20" height="20" as="geometry" />
        </mxCell>
        <mxCell id="25JmZB_oEXcPH6vsWVm2-30" value="" style="ellipse;whiteSpace=wrap;html=1;aspect=fixed;fillColor=#0000FF;strokeColor=#000099;" parent="1" vertex="1">
          <mxGeometry x="390" y="760" width="20" height="20" as="geometry" />
        </mxCell>
        <mxCell id="25JmZB_oEXcPH6vsWVm2-31" value="" style="ellipse;whiteSpace=wrap;html=1;aspect=fixed;fillColor=#0000FF;strokeColor=#000099;" parent="1" vertex="1">
          <mxGeometry x="474" y="840" width="20" height="20" as="geometry" />
        </mxCell>
        <mxCell id="25JmZB_oEXcPH6vsWVm2-32" value="" style="ellipse;whiteSpace=wrap;html=1;aspect=fixed;fillColor=#0000FF;strokeColor=#000099;" parent="1" vertex="1">
          <mxGeometry x="400" y="800" width="20" height="20" as="geometry" />
        </mxCell>
        <mxCell id="25JmZB_oEXcPH6vsWVm2-33" value="" style="ellipse;whiteSpace=wrap;html=1;aspect=fixed;fillColor=#0000FF;strokeColor=#000099;" parent="1" vertex="1">
          <mxGeometry x="444" y="870" width="20" height="20" as="geometry" />
        </mxCell>
        <mxCell id="25JmZB_oEXcPH6vsWVm2-34" value="" style="ellipse;whiteSpace=wrap;html=1;aspect=fixed;fillColor=#0000FF;strokeColor=#000099;" parent="1" vertex="1">
          <mxGeometry x="474" y="800" width="20" height="20" as="geometry" />
        </mxCell>
        <mxCell id="25JmZB_oEXcPH6vsWVm2-35" value="" style="ellipse;whiteSpace=wrap;html=1;aspect=fixed;fillColor=#0000FF;strokeColor=#000099;" parent="1" vertex="1">
          <mxGeometry x="320" y="710" width="20" height="20" as="geometry" />
        </mxCell>
        <mxCell id="25JmZB_oEXcPH6vsWVm2-36" value="" style="ellipse;whiteSpace=wrap;html=1;aspect=fixed;fillColor=#0000FF;strokeColor=#000099;" parent="1" vertex="1">
          <mxGeometry x="300" y="750" width="20" height="20" as="geometry" />
        </mxCell>
        <mxCell id="25JmZB_oEXcPH6vsWVm2-37" value="" style="rhombus;whiteSpace=wrap;html=1;fillColor=#00FF00;strokeColor=#006633;" parent="1" vertex="1">
          <mxGeometry x="190" y="880" width="20" height="20" as="geometry" />
        </mxCell>
        <mxCell id="25JmZB_oEXcPH6vsWVm2-38" value="" style="rhombus;whiteSpace=wrap;html=1;fillColor=#00FF00;strokeColor=#006633;" parent="1" vertex="1">
          <mxGeometry x="434" y="1030" width="20" height="20" as="geometry" />
        </mxCell>
        <mxCell id="25JmZB_oEXcPH6vsWVm2-39" value="" style="rhombus;whiteSpace=wrap;html=1;fillColor=#00FF00;strokeColor=#006633;" parent="1" vertex="1">
          <mxGeometry x="160" y="1010" width="20" height="20" as="geometry" />
        </mxCell>
        <mxCell id="25JmZB_oEXcPH6vsWVm2-40" value="" style="rhombus;whiteSpace=wrap;html=1;fillColor=#00FF00;strokeColor=#006633;" parent="1" vertex="1">
          <mxGeometry x="330" y="1030" width="20" height="20" as="geometry" />
        </mxCell>
        <mxCell id="25JmZB_oEXcPH6vsWVm2-41" value="Support Vectors" style="text;html=1;align=center;verticalAlign=middle;whiteSpace=wrap;rounded=0;strokeColor=default;fontStyle=1" parent="1" vertex="1">
          <mxGeometry x="580" y="895" width="60" height="30" as="geometry" />
        </mxCell>
        <mxCell id="25JmZB_oEXcPH6vsWVm2-42" value="" style="group" parent="1" vertex="1" connectable="0">
          <mxGeometry x="550" y="670" width="90" height="70" as="geometry" />
        </mxCell>
        <mxCell id="25JmZB_oEXcPH6vsWVm2-43" value="" style="rounded=0;whiteSpace=wrap;html=1;" parent="25JmZB_oEXcPH6vsWVm2-42" vertex="1">
          <mxGeometry width="90" height="70" as="geometry" />
        </mxCell>
        <mxCell id="25JmZB_oEXcPH6vsWVm2-44" value="" style="ellipse;whiteSpace=wrap;html=1;aspect=fixed;fillColor=#0000FF;strokeColor=#000099;" parent="25JmZB_oEXcPH6vsWVm2-42" vertex="1">
          <mxGeometry x="10" y="10" width="20" height="20" as="geometry" />
        </mxCell>
        <mxCell id="25JmZB_oEXcPH6vsWVm2-45" value="" style="rhombus;whiteSpace=wrap;html=1;fillColor=#00FF00;strokeColor=#006633;" parent="25JmZB_oEXcPH6vsWVm2-42" vertex="1">
          <mxGeometry x="10" y="40" width="20" height="20" as="geometry" />
        </mxCell>
        <mxCell id="25JmZB_oEXcPH6vsWVm2-46" value="Class A" style="text;html=1;strokeColor=none;fillColor=none;align=center;verticalAlign=middle;whiteSpace=wrap;rounded=0;fontStyle=1" parent="25JmZB_oEXcPH6vsWVm2-42" vertex="1">
          <mxGeometry x="30" y="10" width="60" height="20" as="geometry" />
        </mxCell>
        <mxCell id="25JmZB_oEXcPH6vsWVm2-47" value="Class B" style="text;html=1;strokeColor=none;fillColor=none;align=center;verticalAlign=middle;whiteSpace=wrap;rounded=0;fontStyle=1" parent="25JmZB_oEXcPH6vsWVm2-42" vertex="1">
          <mxGeometry x="30" y="40" width="60" height="20" as="geometry" />
        </mxCell>
        <mxCell id="25JmZB_oEXcPH6vsWVm2-48" value="" style="endArrow=classic;html=1;rounded=0;exitX=0;exitY=0.5;exitDx=0;exitDy=0;entryX=1;entryY=0.5;entryDx=0;entryDy=0;" parent="1" source="25JmZB_oEXcPH6vsWVm2-41" target="25JmZB_oEXcPH6vsWVm2-23" edge="1">
          <mxGeometry width="50" height="50" relative="1" as="geometry">
            <mxPoint x="570" y="905" as="sourcePoint" />
            <mxPoint x="470" y="910" as="targetPoint" />
          </mxGeometry>
        </mxCell>
        <mxCell id="25JmZB_oEXcPH6vsWVm2-49" value="" style="endArrow=classic;html=1;rounded=0;exitX=-0.052;exitY=0.486;exitDx=0;exitDy=0;exitPerimeter=0;entryX=1;entryY=0.5;entryDx=0;entryDy=0;" parent="1" source="25JmZB_oEXcPH6vsWVm2-41" target="25JmZB_oEXcPH6vsWVm2-20" edge="1">
          <mxGeometry width="50" height="50" relative="1" as="geometry">
            <mxPoint x="440" y="930" as="sourcePoint" />
            <mxPoint x="490" y="880" as="targetPoint" />
          </mxGeometry>
        </mxCell>
        <mxCell id="25JmZB_oEXcPH6vsWVm2-50" value="Feature 1" style="text;html=1;strokeColor=none;fillColor=none;align=center;verticalAlign=middle;whiteSpace=wrap;rounded=0;" parent="1" vertex="1">
          <mxGeometry x="610" y="1090" width="60" height="30" as="geometry" />
        </mxCell>
        <mxCell id="25JmZB_oEXcPH6vsWVm2-51" value="Feature 2" style="text;html=1;strokeColor=none;fillColor=none;align=center;verticalAlign=middle;whiteSpace=wrap;rounded=0;direction=south;horizontal=0;" parent="1" vertex="1">
          <mxGeometry x="120" y="665" width="30" height="60" as="geometry" />
        </mxCell>
        <mxCell id="25JmZB_oEXcPH6vsWVm2-52" value="" style="rhombus;whiteSpace=wrap;html=1;fillColor=#00FF00;strokeColor=#006633;" parent="1" vertex="1">
          <mxGeometry x="385" y="730" width="20" height="20" as="geometry" />
        </mxCell>
        <mxCell id="25JmZB_oEXcPH6vsWVm2-53" value="" style="ellipse;whiteSpace=wrap;html=1;aspect=fixed;fillColor=#0000FF;strokeColor=#000099;" parent="1" vertex="1">
          <mxGeometry x="340" y="740" width="20" height="20" as="geometry" />
        </mxCell>
        <mxCell id="25JmZB_oEXcPH6vsWVm2-55" value="Outlier" style="text;html=1;align=center;verticalAlign=middle;whiteSpace=wrap;rounded=0;strokeColor=default;fontStyle=1" parent="1" vertex="1">
          <mxGeometry x="439" y="725" width="60" height="30" as="geometry" />
        </mxCell>
        <mxCell id="25JmZB_oEXcPH6vsWVm2-56" value="" style="endArrow=classic;html=1;rounded=0;exitX=0;exitY=0.5;exitDx=0;exitDy=0;entryX=1;entryY=0.5;entryDx=0;entryDy=0;" parent="1" source="25JmZB_oEXcPH6vsWVm2-55" target="25JmZB_oEXcPH6vsWVm2-52" edge="1">
          <mxGeometry width="50" height="50" relative="1" as="geometry">
            <mxPoint x="340" y="780" as="sourcePoint" />
            <mxPoint x="390" y="730" as="targetPoint" />
          </mxGeometry>
        </mxCell>
        <mxCell id="25JmZB_oEXcPH6vsWVm2-59" value="" style="endArrow=classic;html=1;rounded=0;" parent="1" edge="1">
          <mxGeometry width="50" height="50" relative="1" as="geometry">
            <mxPoint x="150" y="1650" as="sourcePoint" />
            <mxPoint x="150" y="1210" as="targetPoint" />
          </mxGeometry>
        </mxCell>
        <mxCell id="25JmZB_oEXcPH6vsWVm2-60" value="" style="endArrow=classic;html=1;rounded=0;" parent="1" edge="1">
          <mxGeometry width="50" height="50" relative="1" as="geometry">
            <mxPoint x="150" y="1650" as="sourcePoint" />
            <mxPoint x="680" y="1650" as="targetPoint" />
          </mxGeometry>
        </mxCell>
        <mxCell id="25JmZB_oEXcPH6vsWVm2-61" value="" style="rhombus;whiteSpace=wrap;html=1;fillColor=#00FF00;strokeColor=#006633;" parent="1" vertex="1">
          <mxGeometry x="270" y="1550" width="20" height="20" as="geometry" />
        </mxCell>
        <mxCell id="25JmZB_oEXcPH6vsWVm2-62" value="" style="rhombus;whiteSpace=wrap;html=1;fillColor=#00FF00;strokeColor=#006633;" parent="1" vertex="1">
          <mxGeometry x="260" y="1430" width="20" height="20" as="geometry" />
        </mxCell>
        <mxCell id="25JmZB_oEXcPH6vsWVm2-63" value="" style="rhombus;whiteSpace=wrap;html=1;fillColor=#00FF00;strokeColor=#006633;" parent="1" vertex="1">
          <mxGeometry x="290" y="1490" width="20" height="20" as="geometry" />
        </mxCell>
        <mxCell id="25JmZB_oEXcPH6vsWVm2-64" value="" style="rhombus;whiteSpace=wrap;html=1;fillColor=#00FF00;strokeColor=#006633;" parent="1" vertex="1">
          <mxGeometry x="360" y="1530" width="20" height="20" as="geometry" />
        </mxCell>
        <mxCell id="25JmZB_oEXcPH6vsWVm2-65" value="" style="rhombus;whiteSpace=wrap;html=1;fillColor=#00FF00;strokeColor=#006633;" parent="1" vertex="1">
          <mxGeometry x="320" y="1530" width="20" height="20" as="geometry" />
        </mxCell>
        <mxCell id="25JmZB_oEXcPH6vsWVm2-66" value="" style="rhombus;whiteSpace=wrap;html=1;fillColor=#00FF00;strokeColor=#006633;" parent="1" vertex="1">
          <mxGeometry x="370" y="1500" width="20" height="20" as="geometry" />
        </mxCell>
        <mxCell id="25JmZB_oEXcPH6vsWVm2-67" value="" style="rhombus;whiteSpace=wrap;html=1;fillColor=#00FF00;strokeColor=#006633;" parent="1" vertex="1">
          <mxGeometry x="280" y="1520" width="20" height="20" as="geometry" />
        </mxCell>
        <mxCell id="25JmZB_oEXcPH6vsWVm2-68" value="" style="rhombus;whiteSpace=wrap;html=1;fillColor=#00FF00;strokeColor=#006633;" parent="1" vertex="1">
          <mxGeometry x="310" y="1460" width="20" height="20" as="geometry" />
        </mxCell>
        <mxCell id="25JmZB_oEXcPH6vsWVm2-69" value="" style="rhombus;whiteSpace=wrap;html=1;fillColor=#00FF00;strokeColor=#006633;" parent="1" vertex="1">
          <mxGeometry x="410" y="1450" width="20" height="20" as="geometry" />
        </mxCell>
        <mxCell id="25JmZB_oEXcPH6vsWVm2-70" value="" style="rhombus;whiteSpace=wrap;html=1;fillColor=#00FF00;strokeColor=#006633;" parent="1" vertex="1">
          <mxGeometry x="250" y="1500" width="20" height="20" as="geometry" />
        </mxCell>
        <mxCell id="25JmZB_oEXcPH6vsWVm2-71" value="" style="rhombus;whiteSpace=wrap;html=1;fillColor=#00FF00;strokeColor=#006633;" parent="1" vertex="1">
          <mxGeometry x="270" y="1390" width="20" height="20" as="geometry" />
        </mxCell>
        <mxCell id="25JmZB_oEXcPH6vsWVm2-72" value="" style="rhombus;whiteSpace=wrap;html=1;fillColor=#00FF00;strokeColor=#006633;" parent="1" vertex="1">
          <mxGeometry x="250" y="1530" width="20" height="20" as="geometry" />
        </mxCell>
        <mxCell id="25JmZB_oEXcPH6vsWVm2-73" value="" style="rhombus;whiteSpace=wrap;html=1;fillColor=#00FF00;strokeColor=#006633;" parent="1" vertex="1">
          <mxGeometry x="230" y="1470" width="20" height="20" as="geometry" />
        </mxCell>
        <mxCell id="25JmZB_oEXcPH6vsWVm2-74" value="" style="endArrow=none;html=1;rounded=0;strokeWidth=3;" parent="1" source="25JmZB_oEXcPH6vsWVm2-198" edge="1">
          <mxGeometry width="50" height="50" relative="1" as="geometry">
            <mxPoint x="150" y="1270" as="sourcePoint" />
            <mxPoint x="620" y="1650" as="targetPoint" />
          </mxGeometry>
        </mxCell>
        <mxCell id="25JmZB_oEXcPH6vsWVm2-75" value="" style="endArrow=none;dashed=1;html=1;rounded=0;" parent="1" edge="1">
          <mxGeometry width="50" height="50" relative="1" as="geometry">
            <mxPoint x="150" y="1320" as="sourcePoint" />
            <mxPoint x="570" y="1650" as="targetPoint" />
          </mxGeometry>
        </mxCell>
        <mxCell id="25JmZB_oEXcPH6vsWVm2-76" value="" style="rhombus;whiteSpace=wrap;html=1;fillColor=#00FF00;strokeColor=#006633;" parent="1" vertex="1">
          <mxGeometry x="420" y="1490" width="20" height="20" as="geometry" />
        </mxCell>
        <mxCell id="25JmZB_oEXcPH6vsWVm2-77" value="" style="endArrow=none;dashed=1;html=1;rounded=0;exitX=0.106;exitY=-0.075;exitDx=0;exitDy=0;exitPerimeter=0;" parent="1" source="25JmZB_oEXcPH6vsWVm2-107" edge="1">
          <mxGeometry width="50" height="50" relative="1" as="geometry">
            <mxPoint x="461.68638355801045" y="1476.3968357646136" as="sourcePoint" />
            <mxPoint x="670" y="1650" as="targetPoint" />
          </mxGeometry>
        </mxCell>
        <mxCell id="25JmZB_oEXcPH6vsWVm2-80" value="" style="ellipse;whiteSpace=wrap;html=1;aspect=fixed;fillColor=#0000FF;strokeColor=#000099;" parent="1" vertex="1">
          <mxGeometry x="330" y="1430" width="20" height="20" as="geometry" />
        </mxCell>
        <mxCell id="25JmZB_oEXcPH6vsWVm2-81" value="" style="ellipse;whiteSpace=wrap;html=1;aspect=fixed;fillColor=#0000FF;strokeColor=#000099;" parent="1" vertex="1">
          <mxGeometry x="360" y="1350" width="20" height="20" as="geometry" />
        </mxCell>
        <mxCell id="25JmZB_oEXcPH6vsWVm2-82" value="" style="ellipse;whiteSpace=wrap;html=1;aspect=fixed;fillColor=#0000FF;strokeColor=#000099;" parent="1" vertex="1">
          <mxGeometry x="385" y="1480" width="20" height="20" as="geometry" />
        </mxCell>
        <mxCell id="25JmZB_oEXcPH6vsWVm2-83" value="" style="ellipse;whiteSpace=wrap;html=1;aspect=fixed;fillColor=#0000FF;strokeColor=#000099;" parent="1" vertex="1">
          <mxGeometry x="390" y="1390" width="20" height="20" as="geometry" />
        </mxCell>
        <mxCell id="25JmZB_oEXcPH6vsWVm2-84" value="" style="ellipse;whiteSpace=wrap;html=1;aspect=fixed;fillColor=#0000FF;strokeColor=#000099;" parent="1" vertex="1">
          <mxGeometry x="330" y="1340" width="20" height="20" as="geometry" />
        </mxCell>
        <mxCell id="25JmZB_oEXcPH6vsWVm2-85" value="" style="ellipse;whiteSpace=wrap;html=1;aspect=fixed;fillColor=#0000FF;strokeColor=#000099;" parent="1" vertex="1">
          <mxGeometry x="400" y="1360" width="20" height="20" as="geometry" />
        </mxCell>
        <mxCell id="25JmZB_oEXcPH6vsWVm2-86" value="" style="ellipse;whiteSpace=wrap;html=1;aspect=fixed;fillColor=#0000FF;strokeColor=#000099;" parent="1" vertex="1">
          <mxGeometry x="390" y="1320" width="20" height="20" as="geometry" />
        </mxCell>
        <mxCell id="25JmZB_oEXcPH6vsWVm2-87" value="" style="ellipse;whiteSpace=wrap;html=1;aspect=fixed;fillColor=#0000FF;strokeColor=#000099;" parent="1" vertex="1">
          <mxGeometry x="474" y="1400" width="20" height="20" as="geometry" />
        </mxCell>
        <mxCell id="25JmZB_oEXcPH6vsWVm2-88" value="" style="ellipse;whiteSpace=wrap;html=1;aspect=fixed;fillColor=#0000FF;strokeColor=#000099;" parent="1" vertex="1">
          <mxGeometry x="300" y="1400" width="20" height="20" as="geometry" />
        </mxCell>
        <mxCell id="25JmZB_oEXcPH6vsWVm2-89" value="" style="ellipse;whiteSpace=wrap;html=1;aspect=fixed;fillColor=#0000FF;strokeColor=#000099;" parent="1" vertex="1">
          <mxGeometry x="360" y="1430" width="20" height="20" as="geometry" />
        </mxCell>
        <mxCell id="25JmZB_oEXcPH6vsWVm2-90" value="" style="ellipse;whiteSpace=wrap;html=1;aspect=fixed;fillColor=#0000FF;strokeColor=#000099;" parent="1" vertex="1">
          <mxGeometry x="474" y="1360" width="20" height="20" as="geometry" />
        </mxCell>
        <mxCell id="25JmZB_oEXcPH6vsWVm2-91" value="" style="ellipse;whiteSpace=wrap;html=1;aspect=fixed;fillColor=#0000FF;strokeColor=#000099;" parent="1" vertex="1">
          <mxGeometry x="340" y="1310" width="20" height="20" as="geometry" />
        </mxCell>
        <mxCell id="25JmZB_oEXcPH6vsWVm2-92" value="" style="ellipse;whiteSpace=wrap;html=1;aspect=fixed;fillColor=#0000FF;strokeColor=#000099;" parent="1" vertex="1">
          <mxGeometry x="300" y="1310" width="20" height="20" as="geometry" />
        </mxCell>
        <mxCell id="25JmZB_oEXcPH6vsWVm2-93" value="" style="rhombus;whiteSpace=wrap;html=1;fillColor=#00FF00;strokeColor=#006633;" parent="1" vertex="1">
          <mxGeometry x="220" y="1420" width="20" height="20" as="geometry" />
        </mxCell>
        <mxCell id="25JmZB_oEXcPH6vsWVm2-94" value="" style="rhombus;whiteSpace=wrap;html=1;fillColor=#00FF00;strokeColor=#006633;" parent="1" vertex="1">
          <mxGeometry x="464" y="1570" width="20" height="20" as="geometry" />
        </mxCell>
        <mxCell id="25JmZB_oEXcPH6vsWVm2-95" value="" style="rhombus;whiteSpace=wrap;html=1;fillColor=#00FF00;strokeColor=#006633;" parent="1" vertex="1">
          <mxGeometry x="190" y="1550" width="20" height="20" as="geometry" />
        </mxCell>
        <mxCell id="25JmZB_oEXcPH6vsWVm2-96" value="" style="rhombus;whiteSpace=wrap;html=1;fillColor=#00FF00;strokeColor=#006633;" parent="1" vertex="1">
          <mxGeometry x="360" y="1570" width="20" height="20" as="geometry" />
        </mxCell>
        <mxCell id="25JmZB_oEXcPH6vsWVm2-106" value="Feature 1" style="text;html=1;strokeColor=none;fillColor=none;align=center;verticalAlign=middle;whiteSpace=wrap;rounded=0;" parent="1" vertex="1">
          <mxGeometry x="610" y="1650" width="60" height="30" as="geometry" />
        </mxCell>
        <mxCell id="25JmZB_oEXcPH6vsWVm2-107" value="Feature 2" style="text;html=1;strokeColor=none;fillColor=none;align=center;verticalAlign=middle;whiteSpace=wrap;rounded=0;direction=south;horizontal=0;" parent="1" vertex="1">
          <mxGeometry x="120" y="1225" width="30" height="60" as="geometry" />
        </mxCell>
        <mxCell id="25JmZB_oEXcPH6vsWVm2-108" value="" style="rhombus;whiteSpace=wrap;html=1;fillColor=#00FF00;strokeColor=#006633;" parent="1" vertex="1">
          <mxGeometry x="310" y="1430" width="20" height="20" as="geometry" />
        </mxCell>
        <mxCell id="25JmZB_oEXcPH6vsWVm2-109" value="" style="rhombus;whiteSpace=wrap;html=1;fillColor=#00FF00;strokeColor=#006633;" parent="1" vertex="1">
          <mxGeometry x="350" y="1470" width="20" height="20" as="geometry" />
        </mxCell>
        <mxCell id="25JmZB_oEXcPH6vsWVm2-110" value="" style="rhombus;whiteSpace=wrap;html=1;fillColor=#00FF00;strokeColor=#006633;" parent="1" vertex="1">
          <mxGeometry x="320" y="1380" width="20" height="20" as="geometry" />
        </mxCell>
        <mxCell id="25JmZB_oEXcPH6vsWVm2-111" value="" style="rhombus;whiteSpace=wrap;html=1;fillColor=#00FF00;strokeColor=#006633;" parent="1" vertex="1">
          <mxGeometry x="380" y="1440" width="20" height="20" as="geometry" />
        </mxCell>
        <mxCell id="25JmZB_oEXcPH6vsWVm2-112" value="" style="rhombus;whiteSpace=wrap;html=1;fillColor=#00FF00;strokeColor=#006633;" parent="1" vertex="1">
          <mxGeometry x="360" y="1400" width="20" height="20" as="geometry" />
        </mxCell>
        <mxCell id="25JmZB_oEXcPH6vsWVm2-113" value="" style="ellipse;whiteSpace=wrap;html=1;aspect=fixed;fillColor=#0000FF;strokeColor=#000099;" parent="1" vertex="1">
          <mxGeometry x="444" y="1380" width="20" height="20" as="geometry" />
        </mxCell>
        <mxCell id="25JmZB_oEXcPH6vsWVm2-114" value="" style="ellipse;whiteSpace=wrap;html=1;aspect=fixed;fillColor=#0000FF;strokeColor=#000099;" parent="1" vertex="1">
          <mxGeometry x="409" y="1410" width="20" height="20" as="geometry" />
        </mxCell>
        <mxCell id="25JmZB_oEXcPH6vsWVm2-115" value="" style="ellipse;whiteSpace=wrap;html=1;aspect=fixed;fillColor=#0000FF;strokeColor=#000099;" parent="1" vertex="1">
          <mxGeometry x="300" y="1360" width="20" height="20" as="geometry" />
        </mxCell>
        <mxCell id="25JmZB_oEXcPH6vsWVm2-116" value="" style="ellipse;whiteSpace=wrap;html=1;aspect=fixed;fillColor=#0000FF;strokeColor=#000099;" parent="1" vertex="1">
          <mxGeometry x="280" y="1440" width="20" height="20" as="geometry" />
        </mxCell>
        <mxCell id="25JmZB_oEXcPH6vsWVm2-118" value="" style="ellipse;whiteSpace=wrap;html=1;aspect=fixed;fillColor=#0000FF;strokeColor=#000099;" parent="1" vertex="1">
          <mxGeometry x="250" y="1370" width="20" height="20" as="geometry" />
        </mxCell>
        <mxCell id="25JmZB_oEXcPH6vsWVm2-128" value="Low C value" style="text;html=1;align=center;verticalAlign=middle;whiteSpace=wrap;rounded=0;strokeColor=default;fontStyle=1" parent="1" vertex="1">
          <mxGeometry x="340" y="1210" width="140" height="30" as="geometry" />
        </mxCell>
        <mxCell id="25JmZB_oEXcPH6vsWVm2-129" value="" style="ellipse;whiteSpace=wrap;html=1;aspect=fixed;fillColor=#f8cecc;strokeColor=#b85450;" parent="1" vertex="1">
          <mxGeometry x="876" y="1374.31" width="30" height="30" as="geometry" />
        </mxCell>
        <mxCell id="25JmZB_oEXcPH6vsWVm2-130" value="" style="ellipse;whiteSpace=wrap;html=1;aspect=fixed;fillColor=#f8cecc;strokeColor=#b85450;" parent="1" vertex="1">
          <mxGeometry x="916" y="1394.31" width="30" height="30" as="geometry" />
        </mxCell>
        <mxCell id="25JmZB_oEXcPH6vsWVm2-131" value="" style="ellipse;whiteSpace=wrap;html=1;aspect=fixed;fillColor=#f8cecc;strokeColor=#b85450;" parent="1" vertex="1">
          <mxGeometry x="936" y="1434.31" width="30" height="30" as="geometry" />
        </mxCell>
        <mxCell id="25JmZB_oEXcPH6vsWVm2-132" value="" style="ellipse;whiteSpace=wrap;html=1;aspect=fixed;fillColor=#f8cecc;strokeColor=#b85450;" parent="1" vertex="1">
          <mxGeometry x="966" y="1444.31" width="30" height="30" as="geometry" />
        </mxCell>
        <mxCell id="25JmZB_oEXcPH6vsWVm2-133" value="" style="ellipse;whiteSpace=wrap;html=1;aspect=fixed;fillColor=#f8cecc;strokeColor=#b85450;" parent="1" vertex="1">
          <mxGeometry x="836" y="1434.31" width="30" height="30" as="geometry" />
        </mxCell>
        <mxCell id="25JmZB_oEXcPH6vsWVm2-134" value="" style="ellipse;whiteSpace=wrap;html=1;aspect=fixed;fillColor=#f8cecc;strokeColor=#b85450;" parent="1" vertex="1">
          <mxGeometry x="856" y="1394.31" width="30" height="30" as="geometry" />
        </mxCell>
        <mxCell id="25JmZB_oEXcPH6vsWVm2-135" value="" style="ellipse;whiteSpace=wrap;html=1;aspect=fixed;fillColor=#f8cecc;strokeColor=#b85450;" parent="1" vertex="1">
          <mxGeometry x="886" y="1424.31" width="30" height="30" as="geometry" />
        </mxCell>
        <mxCell id="25JmZB_oEXcPH6vsWVm2-136" value="" style="ellipse;whiteSpace=wrap;html=1;aspect=fixed;fillColor=#f8cecc;strokeColor=#b85450;" parent="1" vertex="1">
          <mxGeometry x="941" y="1474.31" width="30" height="30" as="geometry" />
        </mxCell>
        <mxCell id="25JmZB_oEXcPH6vsWVm2-137" value="" style="ellipse;whiteSpace=wrap;html=1;aspect=fixed;fillColor=#f8cecc;strokeColor=#b85450;" parent="1" vertex="1">
          <mxGeometry x="806" y="1364.31" width="30" height="30" as="geometry" />
        </mxCell>
        <mxCell id="25JmZB_oEXcPH6vsWVm2-138" value="" style="endArrow=classic;html=1;rounded=0;" parent="1" edge="1">
          <mxGeometry width="50" height="50" relative="1" as="geometry">
            <mxPoint x="711" y="1649.31" as="sourcePoint" />
            <mxPoint x="711" y="1209.31" as="targetPoint" />
          </mxGeometry>
        </mxCell>
        <mxCell id="25JmZB_oEXcPH6vsWVm2-139" value="" style="endArrow=classic;html=1;rounded=0;" parent="1" edge="1">
          <mxGeometry width="50" height="50" relative="1" as="geometry">
            <mxPoint x="711" y="1649.31" as="sourcePoint" />
            <mxPoint x="1241" y="1649.31" as="targetPoint" />
          </mxGeometry>
        </mxCell>
        <mxCell id="25JmZB_oEXcPH6vsWVm2-140" value="" style="rhombus;whiteSpace=wrap;html=1;fillColor=#00FF00;strokeColor=#006633;" parent="1" vertex="1">
          <mxGeometry x="831" y="1549.31" width="20" height="20" as="geometry" />
        </mxCell>
        <mxCell id="25JmZB_oEXcPH6vsWVm2-141" value="" style="rhombus;whiteSpace=wrap;html=1;fillColor=#00FF00;strokeColor=#006633;" parent="1" vertex="1">
          <mxGeometry x="821" y="1429.31" width="20" height="20" as="geometry" />
        </mxCell>
        <mxCell id="25JmZB_oEXcPH6vsWVm2-142" value="" style="rhombus;whiteSpace=wrap;html=1;fillColor=#00FF00;strokeColor=#006633;" parent="1" vertex="1">
          <mxGeometry x="851" y="1489.31" width="20" height="20" as="geometry" />
        </mxCell>
        <mxCell id="25JmZB_oEXcPH6vsWVm2-143" value="" style="rhombus;whiteSpace=wrap;html=1;fillColor=#00FF00;strokeColor=#006633;" parent="1" vertex="1">
          <mxGeometry x="921" y="1529.31" width="20" height="20" as="geometry" />
        </mxCell>
        <mxCell id="25JmZB_oEXcPH6vsWVm2-144" value="" style="rhombus;whiteSpace=wrap;html=1;fillColor=#00FF00;strokeColor=#006633;" parent="1" vertex="1">
          <mxGeometry x="881" y="1529.31" width="20" height="20" as="geometry" />
        </mxCell>
        <mxCell id="25JmZB_oEXcPH6vsWVm2-145" value="" style="rhombus;whiteSpace=wrap;html=1;fillColor=#00FF00;strokeColor=#006633;" parent="1" vertex="1">
          <mxGeometry x="931" y="1499.31" width="20" height="20" as="geometry" />
        </mxCell>
        <mxCell id="25JmZB_oEXcPH6vsWVm2-146" value="" style="rhombus;whiteSpace=wrap;html=1;fillColor=#00FF00;strokeColor=#006633;" parent="1" vertex="1">
          <mxGeometry x="841" y="1519.31" width="20" height="20" as="geometry" />
        </mxCell>
        <mxCell id="25JmZB_oEXcPH6vsWVm2-147" value="" style="rhombus;whiteSpace=wrap;html=1;fillColor=#00FF00;strokeColor=#006633;" parent="1" vertex="1">
          <mxGeometry x="871" y="1459.31" width="20" height="20" as="geometry" />
        </mxCell>
        <mxCell id="25JmZB_oEXcPH6vsWVm2-148" value="" style="rhombus;whiteSpace=wrap;html=1;fillColor=#00FF00;strokeColor=#006633;" parent="1" vertex="1">
          <mxGeometry x="971" y="1449.31" width="20" height="20" as="geometry" />
        </mxCell>
        <mxCell id="25JmZB_oEXcPH6vsWVm2-149" value="" style="rhombus;whiteSpace=wrap;html=1;fillColor=#00FF00;strokeColor=#006633;" parent="1" vertex="1">
          <mxGeometry x="811" y="1499.31" width="20" height="20" as="geometry" />
        </mxCell>
        <mxCell id="25JmZB_oEXcPH6vsWVm2-150" value="" style="rhombus;whiteSpace=wrap;html=1;fillColor=#00FF00;strokeColor=#006633;" parent="1" vertex="1">
          <mxGeometry x="831" y="1389.31" width="20" height="20" as="geometry" />
        </mxCell>
        <mxCell id="25JmZB_oEXcPH6vsWVm2-151" value="" style="rhombus;whiteSpace=wrap;html=1;fillColor=#00FF00;strokeColor=#006633;" parent="1" vertex="1">
          <mxGeometry x="811" y="1529.31" width="20" height="20" as="geometry" />
        </mxCell>
        <mxCell id="25JmZB_oEXcPH6vsWVm2-152" value="" style="rhombus;whiteSpace=wrap;html=1;fillColor=#00FF00;strokeColor=#006633;" parent="1" vertex="1">
          <mxGeometry x="791" y="1469.31" width="20" height="20" as="geometry" />
        </mxCell>
        <mxCell id="25JmZB_oEXcPH6vsWVm2-153" value="" style="endArrow=none;html=1;rounded=0;strokeWidth=3;" parent="1" edge="1">
          <mxGeometry width="50" height="50" relative="1" as="geometry">
            <mxPoint x="711" y="1269.31" as="sourcePoint" />
            <mxPoint x="1181" y="1649.31" as="targetPoint" />
          </mxGeometry>
        </mxCell>
        <mxCell id="25JmZB_oEXcPH6vsWVm2-154" value="" style="endArrow=none;dashed=1;html=1;rounded=0;" parent="1" edge="1">
          <mxGeometry width="50" height="50" relative="1" as="geometry">
            <mxPoint x="711" y="1290" as="sourcePoint" />
            <mxPoint x="1161" y="1649" as="targetPoint" />
          </mxGeometry>
        </mxCell>
        <mxCell id="25JmZB_oEXcPH6vsWVm2-155" value="" style="rhombus;whiteSpace=wrap;html=1;fillColor=#00FF00;strokeColor=#006633;" parent="1" vertex="1">
          <mxGeometry x="981" y="1489.31" width="20" height="20" as="geometry" />
        </mxCell>
        <mxCell id="25JmZB_oEXcPH6vsWVm2-156" value="" style="endArrow=none;dashed=1;html=1;rounded=0;" parent="1" edge="1">
          <mxGeometry width="50" height="50" relative="1" as="geometry">
            <mxPoint x="711" y="1250" as="sourcePoint" />
            <mxPoint x="1201" y="1649" as="targetPoint" />
          </mxGeometry>
        </mxCell>
        <mxCell id="25JmZB_oEXcPH6vsWVm2-157" value="" style="ellipse;whiteSpace=wrap;html=1;aspect=fixed;fillColor=#0000FF;strokeColor=#000099;" parent="1" vertex="1">
          <mxGeometry x="891" y="1429.31" width="20" height="20" as="geometry" />
        </mxCell>
        <mxCell id="25JmZB_oEXcPH6vsWVm2-158" value="" style="ellipse;whiteSpace=wrap;html=1;aspect=fixed;fillColor=#0000FF;strokeColor=#000099;" parent="1" vertex="1">
          <mxGeometry x="921" y="1349.31" width="20" height="20" as="geometry" />
        </mxCell>
        <mxCell id="25JmZB_oEXcPH6vsWVm2-159" value="" style="ellipse;whiteSpace=wrap;html=1;aspect=fixed;fillColor=#0000FF;strokeColor=#000099;" parent="1" vertex="1">
          <mxGeometry x="946" y="1479.31" width="20" height="20" as="geometry" />
        </mxCell>
        <mxCell id="25JmZB_oEXcPH6vsWVm2-160" value="" style="ellipse;whiteSpace=wrap;html=1;aspect=fixed;fillColor=#0000FF;strokeColor=#000099;" parent="1" vertex="1">
          <mxGeometry x="951" y="1389.31" width="20" height="20" as="geometry" />
        </mxCell>
        <mxCell id="25JmZB_oEXcPH6vsWVm2-161" value="" style="ellipse;whiteSpace=wrap;html=1;aspect=fixed;fillColor=#0000FF;strokeColor=#000099;" parent="1" vertex="1">
          <mxGeometry x="891" y="1339.31" width="20" height="20" as="geometry" />
        </mxCell>
        <mxCell id="25JmZB_oEXcPH6vsWVm2-162" value="" style="ellipse;whiteSpace=wrap;html=1;aspect=fixed;fillColor=#0000FF;strokeColor=#000099;" parent="1" vertex="1">
          <mxGeometry x="961" y="1359.31" width="20" height="20" as="geometry" />
        </mxCell>
        <mxCell id="25JmZB_oEXcPH6vsWVm2-163" value="" style="ellipse;whiteSpace=wrap;html=1;aspect=fixed;fillColor=#0000FF;strokeColor=#000099;" parent="1" vertex="1">
          <mxGeometry x="951" y="1319.31" width="20" height="20" as="geometry" />
        </mxCell>
        <mxCell id="25JmZB_oEXcPH6vsWVm2-164" value="" style="ellipse;whiteSpace=wrap;html=1;aspect=fixed;fillColor=#0000FF;strokeColor=#000099;" parent="1" vertex="1">
          <mxGeometry x="1035" y="1399.31" width="20" height="20" as="geometry" />
        </mxCell>
        <mxCell id="25JmZB_oEXcPH6vsWVm2-165" value="" style="ellipse;whiteSpace=wrap;html=1;aspect=fixed;fillColor=#0000FF;strokeColor=#000099;" parent="1" vertex="1">
          <mxGeometry x="861" y="1399.31" width="20" height="20" as="geometry" />
        </mxCell>
        <mxCell id="25JmZB_oEXcPH6vsWVm2-166" value="" style="ellipse;whiteSpace=wrap;html=1;aspect=fixed;fillColor=#0000FF;strokeColor=#000099;" parent="1" vertex="1">
          <mxGeometry x="921" y="1429.31" width="20" height="20" as="geometry" />
        </mxCell>
        <mxCell id="25JmZB_oEXcPH6vsWVm2-167" value="" style="ellipse;whiteSpace=wrap;html=1;aspect=fixed;fillColor=#0000FF;strokeColor=#000099;" parent="1" vertex="1">
          <mxGeometry x="1035" y="1359.31" width="20" height="20" as="geometry" />
        </mxCell>
        <mxCell id="25JmZB_oEXcPH6vsWVm2-168" value="" style="ellipse;whiteSpace=wrap;html=1;aspect=fixed;fillColor=#0000FF;strokeColor=#000099;" parent="1" vertex="1">
          <mxGeometry x="901" y="1309.31" width="20" height="20" as="geometry" />
        </mxCell>
        <mxCell id="25JmZB_oEXcPH6vsWVm2-169" value="" style="ellipse;whiteSpace=wrap;html=1;aspect=fixed;fillColor=#0000FF;strokeColor=#000099;" parent="1" vertex="1">
          <mxGeometry x="861" y="1309.31" width="20" height="20" as="geometry" />
        </mxCell>
        <mxCell id="25JmZB_oEXcPH6vsWVm2-170" value="" style="rhombus;whiteSpace=wrap;html=1;fillColor=#00FF00;strokeColor=#006633;" parent="1" vertex="1">
          <mxGeometry x="781" y="1419.31" width="20" height="20" as="geometry" />
        </mxCell>
        <mxCell id="25JmZB_oEXcPH6vsWVm2-171" value="" style="rhombus;whiteSpace=wrap;html=1;fillColor=#00FF00;strokeColor=#006633;" parent="1" vertex="1">
          <mxGeometry x="1025" y="1569.31" width="20" height="20" as="geometry" />
        </mxCell>
        <mxCell id="25JmZB_oEXcPH6vsWVm2-172" value="" style="rhombus;whiteSpace=wrap;html=1;fillColor=#00FF00;strokeColor=#006633;" parent="1" vertex="1">
          <mxGeometry x="751" y="1549.31" width="20" height="20" as="geometry" />
        </mxCell>
        <mxCell id="25JmZB_oEXcPH6vsWVm2-173" value="" style="rhombus;whiteSpace=wrap;html=1;fillColor=#00FF00;strokeColor=#006633;" parent="1" vertex="1">
          <mxGeometry x="921" y="1569.31" width="20" height="20" as="geometry" />
        </mxCell>
        <mxCell id="25JmZB_oEXcPH6vsWVm2-174" value="" style="group" parent="1" vertex="1" connectable="0">
          <mxGeometry x="1111" y="1229.31" width="90" height="70" as="geometry" />
        </mxCell>
        <mxCell id="25JmZB_oEXcPH6vsWVm2-175" value="" style="rounded=0;whiteSpace=wrap;html=1;" parent="25JmZB_oEXcPH6vsWVm2-174" vertex="1">
          <mxGeometry width="90" height="70" as="geometry" />
        </mxCell>
        <mxCell id="25JmZB_oEXcPH6vsWVm2-176" value="" style="ellipse;whiteSpace=wrap;html=1;aspect=fixed;fillColor=#0000FF;strokeColor=#000099;" parent="25JmZB_oEXcPH6vsWVm2-174" vertex="1">
          <mxGeometry x="10" y="10" width="20" height="20" as="geometry" />
        </mxCell>
        <mxCell id="25JmZB_oEXcPH6vsWVm2-177" value="" style="rhombus;whiteSpace=wrap;html=1;fillColor=#00FF00;strokeColor=#006633;" parent="25JmZB_oEXcPH6vsWVm2-174" vertex="1">
          <mxGeometry x="10" y="40" width="20" height="20" as="geometry" />
        </mxCell>
        <mxCell id="25JmZB_oEXcPH6vsWVm2-178" value="Class A" style="text;html=1;strokeColor=none;fillColor=none;align=center;verticalAlign=middle;whiteSpace=wrap;rounded=0;fontStyle=1" parent="25JmZB_oEXcPH6vsWVm2-174" vertex="1">
          <mxGeometry x="30" y="10" width="60" height="20" as="geometry" />
        </mxCell>
        <mxCell id="25JmZB_oEXcPH6vsWVm2-179" value="Class B" style="text;html=1;strokeColor=none;fillColor=none;align=center;verticalAlign=middle;whiteSpace=wrap;rounded=0;fontStyle=1" parent="25JmZB_oEXcPH6vsWVm2-174" vertex="1">
          <mxGeometry x="30" y="40" width="60" height="20" as="geometry" />
        </mxCell>
        <mxCell id="25JmZB_oEXcPH6vsWVm2-180" value="Feature 1" style="text;html=1;strokeColor=none;fillColor=none;align=center;verticalAlign=middle;whiteSpace=wrap;rounded=0;" parent="1" vertex="1">
          <mxGeometry x="1171" y="1650" width="60" height="30" as="geometry" />
        </mxCell>
        <mxCell id="25JmZB_oEXcPH6vsWVm2-181" value="Feature 2" style="text;html=1;strokeColor=none;fillColor=none;align=center;verticalAlign=middle;whiteSpace=wrap;rounded=0;direction=south;horizontal=0;" parent="1" vertex="1">
          <mxGeometry x="681" y="1225" width="30" height="60" as="geometry" />
        </mxCell>
        <mxCell id="25JmZB_oEXcPH6vsWVm2-182" value="" style="rhombus;whiteSpace=wrap;html=1;fillColor=#00FF00;strokeColor=#006633;" parent="1" vertex="1">
          <mxGeometry x="871" y="1429.31" width="20" height="20" as="geometry" />
        </mxCell>
        <mxCell id="25JmZB_oEXcPH6vsWVm2-183" value="" style="rhombus;whiteSpace=wrap;html=1;fillColor=#00FF00;strokeColor=#006633;" parent="1" vertex="1">
          <mxGeometry x="911" y="1469.31" width="20" height="20" as="geometry" />
        </mxCell>
        <mxCell id="25JmZB_oEXcPH6vsWVm2-184" value="" style="rhombus;whiteSpace=wrap;html=1;fillColor=#00FF00;strokeColor=#006633;" parent="1" vertex="1">
          <mxGeometry x="881" y="1379.31" width="20" height="20" as="geometry" />
        </mxCell>
        <mxCell id="25JmZB_oEXcPH6vsWVm2-185" value="" style="rhombus;whiteSpace=wrap;html=1;fillColor=#00FF00;strokeColor=#006633;" parent="1" vertex="1">
          <mxGeometry x="941" y="1439.31" width="20" height="20" as="geometry" />
        </mxCell>
        <mxCell id="25JmZB_oEXcPH6vsWVm2-186" value="" style="rhombus;whiteSpace=wrap;html=1;fillColor=#00FF00;strokeColor=#006633;" parent="1" vertex="1">
          <mxGeometry x="921" y="1399.31" width="20" height="20" as="geometry" />
        </mxCell>
        <mxCell id="25JmZB_oEXcPH6vsWVm2-187" value="" style="ellipse;whiteSpace=wrap;html=1;aspect=fixed;fillColor=#0000FF;strokeColor=#000099;" parent="1" vertex="1">
          <mxGeometry x="1005" y="1379.31" width="20" height="20" as="geometry" />
        </mxCell>
        <mxCell id="25JmZB_oEXcPH6vsWVm2-188" value="" style="ellipse;whiteSpace=wrap;html=1;aspect=fixed;fillColor=#0000FF;strokeColor=#000099;" parent="1" vertex="1">
          <mxGeometry x="970" y="1409.31" width="20" height="20" as="geometry" />
        </mxCell>
        <mxCell id="25JmZB_oEXcPH6vsWVm2-189" value="" style="ellipse;whiteSpace=wrap;html=1;aspect=fixed;fillColor=#0000FF;strokeColor=#000099;" parent="1" vertex="1">
          <mxGeometry x="861" y="1359.31" width="20" height="20" as="geometry" />
        </mxCell>
        <mxCell id="25JmZB_oEXcPH6vsWVm2-190" value="" style="ellipse;whiteSpace=wrap;html=1;aspect=fixed;fillColor=#0000FF;strokeColor=#000099;" parent="1" vertex="1">
          <mxGeometry x="841" y="1439.31" width="20" height="20" as="geometry" />
        </mxCell>
        <mxCell id="25JmZB_oEXcPH6vsWVm2-192" value="" style="ellipse;whiteSpace=wrap;html=1;aspect=fixed;fillColor=#0000FF;strokeColor=#000099;" parent="1" vertex="1">
          <mxGeometry x="811" y="1369.31" width="20" height="20" as="geometry" />
        </mxCell>
        <mxCell id="25JmZB_oEXcPH6vsWVm2-199" value="" style="endArrow=none;html=1;rounded=0;strokeWidth=3;" parent="1" target="25JmZB_oEXcPH6vsWVm2-198" edge="1">
          <mxGeometry width="50" height="50" relative="1" as="geometry">
            <mxPoint x="150" y="1270" as="sourcePoint" />
            <mxPoint x="620" y="1650" as="targetPoint" />
          </mxGeometry>
        </mxCell>
        <mxCell id="25JmZB_oEXcPH6vsWVm2-205" value="High C value" style="text;html=1;align=center;verticalAlign=middle;whiteSpace=wrap;rounded=0;strokeColor=default;fontStyle=1" parent="1" vertex="1">
          <mxGeometry x="895" y="1210" width="140" height="30" as="geometry" />
        </mxCell>
        <mxCell id="25JmZB_oEXcPH6vsWVm2-208" value="Feature 1" style="text;html=1;strokeColor=none;fillColor=none;align=center;verticalAlign=middle;whiteSpace=wrap;rounded=0;" parent="1" vertex="1">
          <mxGeometry x="499" y="2200" width="60" height="30" as="geometry" />
        </mxCell>
        <mxCell id="25JmZB_oEXcPH6vsWVm2-213" value="" style="rhombus;whiteSpace=wrap;html=1;fillColor=#00FF00;strokeColor=#006633;" parent="1" vertex="1">
          <mxGeometry x="349" y="2190" width="20" height="20" as="geometry" />
        </mxCell>
        <mxCell id="25JmZB_oEXcPH6vsWVm2-216" value="" style="rhombus;whiteSpace=wrap;html=1;fillColor=#00FF00;strokeColor=#006633;" parent="1" vertex="1">
          <mxGeometry x="390" y="2190" width="20" height="20" as="geometry" />
        </mxCell>
        <mxCell id="25JmZB_oEXcPH6vsWVm2-217" value="" style="rhombus;whiteSpace=wrap;html=1;fillColor=#00FF00;strokeColor=#006633;" parent="1" vertex="1">
          <mxGeometry x="310" y="2190" width="20" height="20" as="geometry" />
        </mxCell>
        <mxCell id="25JmZB_oEXcPH6vsWVm2-219" value="" style="ellipse;whiteSpace=wrap;html=1;aspect=fixed;fillColor=#0000FF;strokeColor=#000099;" parent="1" vertex="1">
          <mxGeometry x="429" y="2190" width="20" height="20" as="geometry" />
        </mxCell>
        <mxCell id="25JmZB_oEXcPH6vsWVm2-221" value="" style="ellipse;whiteSpace=wrap;html=1;aspect=fixed;fillColor=#0000FF;strokeColor=#000099;" parent="1" vertex="1">
          <mxGeometry x="469" y="2190" width="20" height="20" as="geometry" />
        </mxCell>
        <mxCell id="25JmZB_oEXcPH6vsWVm2-222" value="" style="ellipse;whiteSpace=wrap;html=1;aspect=fixed;fillColor=#0000FF;strokeColor=#000099;" parent="1" vertex="1">
          <mxGeometry x="230" y="2190" width="20" height="20" as="geometry" />
        </mxCell>
        <mxCell id="25JmZB_oEXcPH6vsWVm2-223" value="" style="ellipse;whiteSpace=wrap;html=1;aspect=fixed;fillColor=#0000FF;strokeColor=#000099;" parent="1" vertex="1">
          <mxGeometry x="270" y="2190" width="20" height="20" as="geometry" />
        </mxCell>
        <mxCell id="25JmZB_oEXcPH6vsWVm2-226" value="" style="endArrow=classic;html=1;rounded=0;" parent="1" edge="1">
          <mxGeometry width="50" height="50" relative="1" as="geometry">
            <mxPoint x="359" y="2480" as="sourcePoint" />
            <mxPoint x="360" y="2260" as="targetPoint" />
          </mxGeometry>
        </mxCell>
        <mxCell id="25JmZB_oEXcPH6vsWVm2-227" value="Feature 1" style="text;html=1;strokeColor=none;fillColor=none;align=center;verticalAlign=middle;whiteSpace=wrap;rounded=0;" parent="1" vertex="1">
          <mxGeometry x="499" y="2480" width="60" height="30" as="geometry" />
        </mxCell>
        <mxCell id="25JmZB_oEXcPH6vsWVm2-228" value="" style="rhombus;whiteSpace=wrap;html=1;fillColor=#00FF00;strokeColor=#006633;" parent="1" vertex="1">
          <mxGeometry x="349" y="2470" width="20" height="20" as="geometry" />
        </mxCell>
        <mxCell id="25JmZB_oEXcPH6vsWVm2-230" value="" style="rhombus;whiteSpace=wrap;html=1;fillColor=#00FF00;strokeColor=#006633;" parent="1" vertex="1">
          <mxGeometry x="310" y="2450" width="20" height="20" as="geometry" />
        </mxCell>
        <mxCell id="25JmZB_oEXcPH6vsWVm2-231" value="" style="ellipse;whiteSpace=wrap;html=1;aspect=fixed;fillColor=#0000FF;strokeColor=#000099;" parent="1" vertex="1">
          <mxGeometry x="430" y="2390" width="20" height="20" as="geometry" />
        </mxCell>
        <mxCell id="25JmZB_oEXcPH6vsWVm2-232" value="" style="ellipse;whiteSpace=wrap;html=1;aspect=fixed;fillColor=#0000FF;strokeColor=#000099;" parent="1" vertex="1">
          <mxGeometry x="469" y="2310" width="20" height="20" as="geometry" />
        </mxCell>
        <mxCell id="25JmZB_oEXcPH6vsWVm2-233" value="" style="ellipse;whiteSpace=wrap;html=1;aspect=fixed;fillColor=#0000FF;strokeColor=#000099;" parent="1" vertex="1">
          <mxGeometry x="230" y="2310" width="20" height="20" as="geometry" />
        </mxCell>
        <mxCell id="25JmZB_oEXcPH6vsWVm2-234" value="" style="ellipse;whiteSpace=wrap;html=1;aspect=fixed;fillColor=#0000FF;strokeColor=#000099;" parent="1" vertex="1">
          <mxGeometry x="270" y="2390" width="20" height="20" as="geometry" />
        </mxCell>
        <mxCell id="25JmZB_oEXcPH6vsWVm2-229" value="" style="rhombus;whiteSpace=wrap;html=1;fillColor=#00FF00;strokeColor=#006633;" parent="1" vertex="1">
          <mxGeometry x="390" y="2450" width="20" height="20" as="geometry" />
        </mxCell>
        <mxCell id="25JmZB_oEXcPH6vsWVm2-238" value="Feature 2" style="text;html=1;strokeColor=none;fillColor=none;align=center;verticalAlign=middle;whiteSpace=wrap;rounded=0;" parent="1" vertex="1">
          <mxGeometry x="360" y="2260" width="60" height="30" as="geometry" />
        </mxCell>
        <mxCell id="25JmZB_oEXcPH6vsWVm2-239" value="" style="endArrow=none;dashed=1;html=1;rounded=0;strokeColor=#FF0000;strokeWidth=2;" parent="1" edge="1">
          <mxGeometry width="50" height="50" relative="1" as="geometry">
            <mxPoint x="200" y="2430" as="sourcePoint" />
            <mxPoint x="520" y="2430" as="targetPoint" />
          </mxGeometry>
        </mxCell>
        <mxCell id="25JmZB_oEXcPH6vsWVm2-240" value="" style="group" parent="1" vertex="1" connectable="0">
          <mxGeometry x="315" y="2060" width="90" height="70" as="geometry" />
        </mxCell>
        <mxCell id="25JmZB_oEXcPH6vsWVm2-241" value="" style="rounded=0;whiteSpace=wrap;html=1;" parent="25JmZB_oEXcPH6vsWVm2-240" vertex="1">
          <mxGeometry width="90" height="70" as="geometry" />
        </mxCell>
        <mxCell id="25JmZB_oEXcPH6vsWVm2-242" value="" style="ellipse;whiteSpace=wrap;html=1;aspect=fixed;fillColor=#0000FF;strokeColor=#000099;" parent="25JmZB_oEXcPH6vsWVm2-240" vertex="1">
          <mxGeometry x="10" y="10" width="20" height="20" as="geometry" />
        </mxCell>
        <mxCell id="25JmZB_oEXcPH6vsWVm2-243" value="" style="rhombus;whiteSpace=wrap;html=1;fillColor=#00FF00;strokeColor=#006633;" parent="25JmZB_oEXcPH6vsWVm2-240" vertex="1">
          <mxGeometry x="10" y="40" width="20" height="20" as="geometry" />
        </mxCell>
        <mxCell id="25JmZB_oEXcPH6vsWVm2-244" value="Class A" style="text;html=1;strokeColor=none;fillColor=none;align=center;verticalAlign=middle;whiteSpace=wrap;rounded=0;fontStyle=1" parent="25JmZB_oEXcPH6vsWVm2-240" vertex="1">
          <mxGeometry x="30" y="10" width="60" height="20" as="geometry" />
        </mxCell>
        <mxCell id="25JmZB_oEXcPH6vsWVm2-245" value="Class B" style="text;html=1;strokeColor=none;fillColor=none;align=center;verticalAlign=middle;whiteSpace=wrap;rounded=0;fontStyle=1" parent="25JmZB_oEXcPH6vsWVm2-240" vertex="1">
          <mxGeometry x="30" y="40" width="60" height="20" as="geometry" />
        </mxCell>
        <mxCell id="25JmZB_oEXcPH6vsWVm2-246" value="" style="group" parent="1" vertex="1" connectable="0">
          <mxGeometry x="500" y="2268" width="90" height="70" as="geometry" />
        </mxCell>
        <mxCell id="25JmZB_oEXcPH6vsWVm2-247" value="" style="rounded=0;whiteSpace=wrap;html=1;" parent="25JmZB_oEXcPH6vsWVm2-246" vertex="1">
          <mxGeometry width="90" height="70" as="geometry" />
        </mxCell>
        <mxCell id="25JmZB_oEXcPH6vsWVm2-248" value="" style="ellipse;whiteSpace=wrap;html=1;aspect=fixed;fillColor=#0000FF;strokeColor=#000099;" parent="25JmZB_oEXcPH6vsWVm2-246" vertex="1">
          <mxGeometry x="10" y="10" width="20" height="20" as="geometry" />
        </mxCell>
        <mxCell id="25JmZB_oEXcPH6vsWVm2-249" value="" style="rhombus;whiteSpace=wrap;html=1;fillColor=#00FF00;strokeColor=#006633;" parent="25JmZB_oEXcPH6vsWVm2-246" vertex="1">
          <mxGeometry x="10" y="40" width="20" height="20" as="geometry" />
        </mxCell>
        <mxCell id="25JmZB_oEXcPH6vsWVm2-250" value="Class A" style="text;html=1;strokeColor=none;fillColor=none;align=center;verticalAlign=middle;whiteSpace=wrap;rounded=0;fontStyle=1" parent="25JmZB_oEXcPH6vsWVm2-246" vertex="1">
          <mxGeometry x="30" y="10" width="60" height="20" as="geometry" />
        </mxCell>
        <mxCell id="25JmZB_oEXcPH6vsWVm2-251" value="Class B" style="text;html=1;strokeColor=none;fillColor=none;align=center;verticalAlign=middle;whiteSpace=wrap;rounded=0;fontStyle=1" parent="25JmZB_oEXcPH6vsWVm2-246" vertex="1">
          <mxGeometry x="30" y="40" width="60" height="20" as="geometry" />
        </mxCell>
        <mxCell id="JuQyEIjS7z9Mak9PK9wV-7" value="" style="endArrow=classic;html=1;rounded=0;entryX=0;entryY=0;entryDx=0;entryDy=0;" edge="1" parent="1" target="JuQyEIjS7z9Mak9PK9wV-10">
          <mxGeometry width="50" height="50" relative="1" as="geometry">
            <mxPoint x="120" y="3040" as="sourcePoint" />
            <mxPoint x="120" y="2600" as="targetPoint" />
          </mxGeometry>
        </mxCell>
        <mxCell id="JuQyEIjS7z9Mak9PK9wV-8" value="" style="endArrow=classic;html=1;rounded=0;" edge="1" parent="1">
          <mxGeometry width="50" height="50" relative="1" as="geometry">
            <mxPoint x="120" y="3040" as="sourcePoint" />
            <mxPoint x="600" y="3040" as="targetPoint" />
          </mxGeometry>
        </mxCell>
        <mxCell id="JuQyEIjS7z9Mak9PK9wV-9" value="Feature 1" style="text;html=1;strokeColor=none;fillColor=none;align=center;verticalAlign=middle;whiteSpace=wrap;rounded=0;" vertex="1" parent="1">
          <mxGeometry x="535" y="3040" width="60" height="30" as="geometry" />
        </mxCell>
        <mxCell id="JuQyEIjS7z9Mak9PK9wV-10" value="Feature 2" style="text;html=1;strokeColor=none;fillColor=none;align=center;verticalAlign=middle;whiteSpace=wrap;rounded=0;direction=south;horizontal=0;" vertex="1" parent="1">
          <mxGeometry x="90" y="2640" width="30" height="60" as="geometry" />
        </mxCell>
        <mxCell id="JuQyEIjS7z9Mak9PK9wV-11" value="" style="ellipse;whiteSpace=wrap;html=1;aspect=fixed;fillColor=#0000FF;strokeColor=#000099;" vertex="1" parent="1">
          <mxGeometry x="469" y="2880" width="20" height="20" as="geometry" />
        </mxCell>
        <mxCell id="JuQyEIjS7z9Mak9PK9wV-12" value="" style="ellipse;whiteSpace=wrap;html=1;aspect=fixed;fillColor=#0000FF;strokeColor=#000099;" vertex="1" parent="1">
          <mxGeometry x="414" y="2890" width="20" height="20" as="geometry" />
        </mxCell>
        <mxCell id="JuQyEIjS7z9Mak9PK9wV-13" value="" style="ellipse;whiteSpace=wrap;html=1;aspect=fixed;fillColor=#0000FF;strokeColor=#000099;" vertex="1" parent="1">
          <mxGeometry x="260" y="2860" width="20" height="20" as="geometry" />
        </mxCell>
        <mxCell id="JuQyEIjS7z9Mak9PK9wV-14" value="" style="ellipse;whiteSpace=wrap;html=1;aspect=fixed;fillColor=#0000FF;strokeColor=#000099;" vertex="1" parent="1">
          <mxGeometry x="295" y="2830" width="20" height="20" as="geometry" />
        </mxCell>
        <mxCell id="JuQyEIjS7z9Mak9PK9wV-15" value="" style="ellipse;whiteSpace=wrap;html=1;aspect=fixed;fillColor=#0000FF;strokeColor=#000099;" vertex="1" parent="1">
          <mxGeometry x="389" y="2860" width="20" height="20" as="geometry" />
        </mxCell>
        <mxCell id="JuQyEIjS7z9Mak9PK9wV-16" value="" style="ellipse;whiteSpace=wrap;html=1;aspect=fixed;fillColor=#0000FF;strokeColor=#000099;" vertex="1" parent="1">
          <mxGeometry x="434" y="2860" width="20" height="20" as="geometry" />
        </mxCell>
        <mxCell id="JuQyEIjS7z9Mak9PK9wV-17" value="" style="ellipse;whiteSpace=wrap;html=1;aspect=fixed;fillColor=#0000FF;strokeColor=#000099;" vertex="1" parent="1">
          <mxGeometry x="469" y="2830" width="20" height="20" as="geometry" />
        </mxCell>
        <mxCell id="JuQyEIjS7z9Mak9PK9wV-18" value="" style="ellipse;whiteSpace=wrap;html=1;aspect=fixed;fillColor=#0000FF;strokeColor=#000099;" vertex="1" parent="1">
          <mxGeometry x="469" y="2790" width="20" height="20" as="geometry" />
        </mxCell>
        <mxCell id="JuQyEIjS7z9Mak9PK9wV-19" value="" style="ellipse;whiteSpace=wrap;html=1;aspect=fixed;fillColor=#0000FF;strokeColor=#000099;" vertex="1" parent="1">
          <mxGeometry x="415" y="2780" width="20" height="20" as="geometry" />
        </mxCell>
        <mxCell id="JuQyEIjS7z9Mak9PK9wV-20" value="" style="ellipse;whiteSpace=wrap;html=1;aspect=fixed;fillColor=#0000FF;strokeColor=#000099;" vertex="1" parent="1">
          <mxGeometry x="419" y="2820" width="20" height="20" as="geometry" />
        </mxCell>
        <mxCell id="JuQyEIjS7z9Mak9PK9wV-21" value="" style="ellipse;whiteSpace=wrap;html=1;aspect=fixed;fillColor=#0000FF;strokeColor=#000099;" vertex="1" parent="1">
          <mxGeometry x="365" y="2820" width="20" height="20" as="geometry" />
        </mxCell>
        <mxCell id="JuQyEIjS7z9Mak9PK9wV-22" value="" style="ellipse;whiteSpace=wrap;html=1;aspect=fixed;fillColor=#0000FF;strokeColor=#000099;" vertex="1" parent="1">
          <mxGeometry x="315" y="2780" width="20" height="20" as="geometry" />
        </mxCell>
        <mxCell id="JuQyEIjS7z9Mak9PK9wV-23" value="" style="ellipse;whiteSpace=wrap;html=1;aspect=fixed;fillColor=#0000FF;strokeColor=#000099;" vertex="1" parent="1">
          <mxGeometry x="230" y="2830" width="20" height="20" as="geometry" />
        </mxCell>
        <mxCell id="JuQyEIjS7z9Mak9PK9wV-24" value="" style="ellipse;whiteSpace=wrap;html=1;aspect=fixed;fillColor=#0000FF;strokeColor=#000099;" vertex="1" parent="1">
          <mxGeometry x="210" y="2790" width="20" height="20" as="geometry" />
        </mxCell>
        <mxCell id="JuQyEIjS7z9Mak9PK9wV-25" value="" style="ellipse;whiteSpace=wrap;html=1;aspect=fixed;fillColor=#0000FF;strokeColor=#000099;" vertex="1" parent="1">
          <mxGeometry x="260" y="2800" width="20" height="20" as="geometry" />
        </mxCell>
        <mxCell id="JuQyEIjS7z9Mak9PK9wV-26" value="" style="ellipse;whiteSpace=wrap;html=1;aspect=fixed;fillColor=#0000FF;strokeColor=#000099;" vertex="1" parent="1">
          <mxGeometry x="240" y="2760" width="20" height="20" as="geometry" />
        </mxCell>
        <mxCell id="JuQyEIjS7z9Mak9PK9wV-28" value="" style="ellipse;whiteSpace=wrap;html=1;aspect=fixed;fillColor=#0000FF;strokeColor=#000099;" vertex="1" parent="1">
          <mxGeometry x="330" y="2820" width="20" height="20" as="geometry" />
        </mxCell>
        <mxCell id="JuQyEIjS7z9Mak9PK9wV-29" value="" style="ellipse;whiteSpace=wrap;html=1;aspect=fixed;fillColor=#0000FF;strokeColor=#000099;" vertex="1" parent="1">
          <mxGeometry x="275" y="2760" width="20" height="20" as="geometry" />
        </mxCell>
        <mxCell id="JuQyEIjS7z9Mak9PK9wV-30" value="" style="rhombus;whiteSpace=wrap;html=1;fillColor=#00FF00;strokeColor=#006633;" vertex="1" parent="1">
          <mxGeometry x="170" y="2780" width="20" height="20" as="geometry" />
        </mxCell>
        <mxCell id="JuQyEIjS7z9Mak9PK9wV-31" value="" style="rhombus;whiteSpace=wrap;html=1;fillColor=#00FF00;strokeColor=#006633;" vertex="1" parent="1">
          <mxGeometry x="374" y="2780" width="20" height="20" as="geometry" />
        </mxCell>
        <mxCell id="JuQyEIjS7z9Mak9PK9wV-32" value="" style="rhombus;whiteSpace=wrap;html=1;fillColor=#00FF00;strokeColor=#006633;" vertex="1" parent="1">
          <mxGeometry x="390" y="2730" width="20" height="20" as="geometry" />
        </mxCell>
        <mxCell id="JuQyEIjS7z9Mak9PK9wV-33" value="" style="rhombus;whiteSpace=wrap;html=1;fillColor=#00FF00;strokeColor=#006633;" vertex="1" parent="1">
          <mxGeometry x="355" y="2700" width="20" height="20" as="geometry" />
        </mxCell>
        <mxCell id="JuQyEIjS7z9Mak9PK9wV-34" value="" style="rhombus;whiteSpace=wrap;html=1;fillColor=#00FF00;strokeColor=#006633;" vertex="1" parent="1">
          <mxGeometry x="305" y="2700" width="20" height="20" as="geometry" />
        </mxCell>
        <mxCell id="JuQyEIjS7z9Mak9PK9wV-35" value="" style="rhombus;whiteSpace=wrap;html=1;fillColor=#00FF00;strokeColor=#006633;" vertex="1" parent="1">
          <mxGeometry x="355" y="2750" width="20" height="20" as="geometry" />
        </mxCell>
        <mxCell id="JuQyEIjS7z9Mak9PK9wV-36" value="" style="rhombus;whiteSpace=wrap;html=1;fillColor=#00FF00;strokeColor=#006633;" vertex="1" parent="1">
          <mxGeometry x="260" y="2700" width="20" height="20" as="geometry" />
        </mxCell>
        <mxCell id="JuQyEIjS7z9Mak9PK9wV-37" value="" style="rhombus;whiteSpace=wrap;html=1;fillColor=#00FF00;strokeColor=#006633;" vertex="1" parent="1">
          <mxGeometry x="320" y="2730" width="20" height="20" as="geometry" />
        </mxCell>
        <mxCell id="JuQyEIjS7z9Mak9PK9wV-38" value="" style="rhombus;whiteSpace=wrap;html=1;fillColor=#00FF00;strokeColor=#006633;" vertex="1" parent="1">
          <mxGeometry x="280" y="2720" width="20" height="20" as="geometry" />
        </mxCell>
        <mxCell id="JuQyEIjS7z9Mak9PK9wV-39" value="" style="rhombus;whiteSpace=wrap;html=1;fillColor=#00FF00;strokeColor=#006633;" vertex="1" parent="1">
          <mxGeometry x="230" y="2720" width="20" height="20" as="geometry" />
        </mxCell>
        <mxCell id="JuQyEIjS7z9Mak9PK9wV-40" value="" style="rhombus;whiteSpace=wrap;html=1;fillColor=#00FF00;strokeColor=#006633;" vertex="1" parent="1">
          <mxGeometry x="200" y="2750" width="20" height="20" as="geometry" />
        </mxCell>
        <mxCell id="JuQyEIjS7z9Mak9PK9wV-42" value="" style="rhombus;whiteSpace=wrap;html=1;fillColor=#00FF00;strokeColor=#006633;" vertex="1" parent="1">
          <mxGeometry x="415" y="2750" width="20" height="20" as="geometry" />
        </mxCell>
        <mxCell id="JuQyEIjS7z9Mak9PK9wV-43" value="" style="rhombus;whiteSpace=wrap;html=1;fillColor=#00FF00;strokeColor=#006633;" vertex="1" parent="1">
          <mxGeometry x="190" y="2820" width="20" height="20" as="geometry" />
        </mxCell>
        <mxCell id="JuQyEIjS7z9Mak9PK9wV-44" value="" style="rhombus;whiteSpace=wrap;html=1;fillColor=#00FF00;strokeColor=#006633;" vertex="1" parent="1">
          <mxGeometry x="435" y="2770" width="20" height="20" as="geometry" />
        </mxCell>
        <mxCell id="JuQyEIjS7z9Mak9PK9wV-45" value="" style="rhombus;whiteSpace=wrap;html=1;fillColor=#00FF00;strokeColor=#006633;" vertex="1" parent="1">
          <mxGeometry x="170" y="2740" width="20" height="20" as="geometry" />
        </mxCell>
        <mxCell id="JuQyEIjS7z9Mak9PK9wV-46" value="" style="rhombus;whiteSpace=wrap;html=1;fillColor=#00FF00;strokeColor=#006633;" vertex="1" parent="1">
          <mxGeometry x="200" y="2860" width="20" height="20" as="geometry" />
        </mxCell>
        <mxCell id="JuQyEIjS7z9Mak9PK9wV-47" value="" style="rhombus;whiteSpace=wrap;html=1;fillColor=#00FF00;strokeColor=#006633;" vertex="1" parent="1">
          <mxGeometry x="230" y="2870" width="20" height="20" as="geometry" />
        </mxCell>
        <mxCell id="JuQyEIjS7z9Mak9PK9wV-48" value="" style="rhombus;whiteSpace=wrap;html=1;fillColor=#00FF00;strokeColor=#006633;" vertex="1" parent="1">
          <mxGeometry x="200" y="2900" width="20" height="20" as="geometry" />
        </mxCell>
        <mxCell id="JuQyEIjS7z9Mak9PK9wV-49" value="" style="rhombus;whiteSpace=wrap;html=1;fillColor=#00FF00;strokeColor=#006633;" vertex="1" parent="1">
          <mxGeometry x="320" y="2850" width="20" height="20" as="geometry" />
        </mxCell>
        <mxCell id="JuQyEIjS7z9Mak9PK9wV-50" value="" style="rhombus;whiteSpace=wrap;html=1;fillColor=#00FF00;strokeColor=#006633;" vertex="1" parent="1">
          <mxGeometry x="355" y="2860" width="20" height="20" as="geometry" />
        </mxCell>
        <mxCell id="JuQyEIjS7z9Mak9PK9wV-51" value="" style="rhombus;whiteSpace=wrap;html=1;fillColor=#00FF00;strokeColor=#006633;" vertex="1" parent="1">
          <mxGeometry x="344" y="2790" width="20" height="20" as="geometry" />
        </mxCell>
        <mxCell id="JuQyEIjS7z9Mak9PK9wV-52" value="" style="rhombus;whiteSpace=wrap;html=1;fillColor=#00FF00;strokeColor=#006633;" vertex="1" parent="1">
          <mxGeometry x="459" y="2740" width="20" height="20" as="geometry" />
        </mxCell>
        <mxCell id="JuQyEIjS7z9Mak9PK9wV-53" value="" style="rhombus;whiteSpace=wrap;html=1;fillColor=#00FF00;strokeColor=#006633;" vertex="1" parent="1">
          <mxGeometry x="499" y="2770" width="20" height="20" as="geometry" />
        </mxCell>
        <mxCell id="JuQyEIjS7z9Mak9PK9wV-54" value="" style="rhombus;whiteSpace=wrap;html=1;fillColor=#00FF00;strokeColor=#006633;" vertex="1" parent="1">
          <mxGeometry x="500" y="2810" width="20" height="20" as="geometry" />
        </mxCell>
        <mxCell id="JuQyEIjS7z9Mak9PK9wV-55" value="" style="rhombus;whiteSpace=wrap;html=1;fillColor=#00FF00;strokeColor=#006633;" vertex="1" parent="1">
          <mxGeometry x="499" y="2860" width="20" height="20" as="geometry" />
        </mxCell>
        <mxCell id="JuQyEIjS7z9Mak9PK9wV-56" value="" style="rhombus;whiteSpace=wrap;html=1;fillColor=#00FF00;strokeColor=#006633;" vertex="1" parent="1">
          <mxGeometry x="530" y="2800" width="20" height="20" as="geometry" />
        </mxCell>
        <mxCell id="JuQyEIjS7z9Mak9PK9wV-57" value="" style="rhombus;whiteSpace=wrap;html=1;fillColor=#00FF00;strokeColor=#006633;" vertex="1" parent="1">
          <mxGeometry x="530" y="2840" width="20" height="20" as="geometry" />
        </mxCell>
        <mxCell id="JuQyEIjS7z9Mak9PK9wV-58" value="" style="rhombus;whiteSpace=wrap;html=1;fillColor=#00FF00;strokeColor=#006633;" vertex="1" parent="1">
          <mxGeometry x="530" y="2880" width="20" height="20" as="geometry" />
        </mxCell>
        <mxCell id="JuQyEIjS7z9Mak9PK9wV-59" value="" style="rhombus;whiteSpace=wrap;html=1;fillColor=#00FF00;strokeColor=#006633;" vertex="1" parent="1">
          <mxGeometry x="180" y="2840" width="20" height="20" as="geometry" />
        </mxCell>
        <mxCell id="JuQyEIjS7z9Mak9PK9wV-60" value="" style="rhombus;whiteSpace=wrap;html=1;fillColor=#00FF00;strokeColor=#006633;" vertex="1" parent="1">
          <mxGeometry x="494" y="2893" width="20" height="20" as="geometry" />
        </mxCell>
        <mxCell id="JuQyEIjS7z9Mak9PK9wV-61" value="" style="rhombus;whiteSpace=wrap;html=1;fillColor=#00FF00;strokeColor=#006633;" vertex="1" parent="1">
          <mxGeometry x="449" y="2910" width="20" height="20" as="geometry" />
        </mxCell>
        <mxCell id="JuQyEIjS7z9Mak9PK9wV-62" value="" style="rhombus;whiteSpace=wrap;html=1;fillColor=#00FF00;strokeColor=#006633;" vertex="1" parent="1">
          <mxGeometry x="390" y="2920" width="20" height="20" as="geometry" />
        </mxCell>
        <mxCell id="JuQyEIjS7z9Mak9PK9wV-63" value="" style="rhombus;whiteSpace=wrap;html=1;fillColor=#00FF00;strokeColor=#006633;" vertex="1" parent="1">
          <mxGeometry x="290" y="2913" width="20" height="20" as="geometry" />
        </mxCell>
        <mxCell id="JuQyEIjS7z9Mak9PK9wV-64" value="" style="rhombus;whiteSpace=wrap;html=1;fillColor=#00FF00;strokeColor=#006633;" vertex="1" parent="1">
          <mxGeometry x="374" y="2890" width="20" height="20" as="geometry" />
        </mxCell>
        <mxCell id="JuQyEIjS7z9Mak9PK9wV-65" value="" style="rhombus;whiteSpace=wrap;html=1;fillColor=#00FF00;strokeColor=#006633;" vertex="1" parent="1">
          <mxGeometry x="340" y="2890" width="20" height="20" as="geometry" />
        </mxCell>
        <mxCell id="JuQyEIjS7z9Mak9PK9wV-66" value="" style="rhombus;whiteSpace=wrap;html=1;fillColor=#00FF00;strokeColor=#006633;" vertex="1" parent="1">
          <mxGeometry x="310" y="2880" width="20" height="20" as="geometry" />
        </mxCell>
        <mxCell id="JuQyEIjS7z9Mak9PK9wV-67" value="" style="rhombus;whiteSpace=wrap;html=1;fillColor=#00FF00;strokeColor=#006633;" vertex="1" parent="1">
          <mxGeometry x="250" y="2900" width="20" height="20" as="geometry" />
        </mxCell>
        <mxCell id="JuQyEIjS7z9Mak9PK9wV-68" value="" style="rhombus;whiteSpace=wrap;html=1;fillColor=#00FF00;strokeColor=#006633;" vertex="1" parent="1">
          <mxGeometry x="285" y="2870" width="20" height="20" as="geometry" />
        </mxCell>
        <mxCell id="JuQyEIjS7z9Mak9PK9wV-77" value="" style="group" vertex="1" connectable="0" parent="1">
          <mxGeometry x="500" y="2960" width="90" height="70" as="geometry" />
        </mxCell>
        <mxCell id="JuQyEIjS7z9Mak9PK9wV-78" value="" style="rounded=0;whiteSpace=wrap;html=1;" vertex="1" parent="JuQyEIjS7z9Mak9PK9wV-77">
          <mxGeometry width="90" height="70" as="geometry" />
        </mxCell>
        <mxCell id="JuQyEIjS7z9Mak9PK9wV-79" value="" style="ellipse;whiteSpace=wrap;html=1;aspect=fixed;fillColor=#0000FF;strokeColor=#000099;" vertex="1" parent="JuQyEIjS7z9Mak9PK9wV-77">
          <mxGeometry x="10" y="10" width="20" height="20" as="geometry" />
        </mxCell>
        <mxCell id="JuQyEIjS7z9Mak9PK9wV-80" value="" style="rhombus;whiteSpace=wrap;html=1;fillColor=#00FF00;strokeColor=#006633;" vertex="1" parent="JuQyEIjS7z9Mak9PK9wV-77">
          <mxGeometry x="10" y="40" width="20" height="20" as="geometry" />
        </mxCell>
        <mxCell id="JuQyEIjS7z9Mak9PK9wV-81" value="Class A" style="text;html=1;strokeColor=none;fillColor=none;align=center;verticalAlign=middle;whiteSpace=wrap;rounded=0;fontStyle=1" vertex="1" parent="JuQyEIjS7z9Mak9PK9wV-77">
          <mxGeometry x="30" y="10" width="60" height="20" as="geometry" />
        </mxCell>
        <mxCell id="JuQyEIjS7z9Mak9PK9wV-82" value="Class B" style="text;html=1;strokeColor=none;fillColor=none;align=center;verticalAlign=middle;whiteSpace=wrap;rounded=0;fontStyle=1" vertex="1" parent="JuQyEIjS7z9Mak9PK9wV-77">
          <mxGeometry x="30" y="40" width="60" height="20" as="geometry" />
        </mxCell>
        <mxCell id="JuQyEIjS7z9Mak9PK9wV-83" value="" style="endArrow=classic;html=1;rounded=0;entryX=0;entryY=0;entryDx=0;entryDy=0;" edge="1" parent="1" target="JuQyEIjS7z9Mak9PK9wV-86">
          <mxGeometry width="50" height="50" relative="1" as="geometry">
            <mxPoint x="120" y="3600" as="sourcePoint" />
            <mxPoint x="120" y="3160" as="targetPoint" />
          </mxGeometry>
        </mxCell>
        <mxCell id="JuQyEIjS7z9Mak9PK9wV-84" value="" style="endArrow=classic;html=1;rounded=0;" edge="1" parent="1">
          <mxGeometry width="50" height="50" relative="1" as="geometry">
            <mxPoint x="120" y="3600" as="sourcePoint" />
            <mxPoint x="600" y="3600" as="targetPoint" />
          </mxGeometry>
        </mxCell>
        <mxCell id="JuQyEIjS7z9Mak9PK9wV-85" value="Feature 1" style="text;html=1;strokeColor=none;fillColor=none;align=center;verticalAlign=middle;whiteSpace=wrap;rounded=0;" vertex="1" parent="1">
          <mxGeometry x="535" y="3600" width="60" height="30" as="geometry" />
        </mxCell>
        <mxCell id="JuQyEIjS7z9Mak9PK9wV-86" value="Feature 2" style="text;html=1;strokeColor=none;fillColor=none;align=center;verticalAlign=middle;whiteSpace=wrap;rounded=0;direction=south;horizontal=0;" vertex="1" parent="1">
          <mxGeometry x="90" y="3200" width="30" height="60" as="geometry" />
        </mxCell>
        <mxCell id="JuQyEIjS7z9Mak9PK9wV-87" value="" style="ellipse;whiteSpace=wrap;html=1;aspect=fixed;fillColor=#0000FF;strokeColor=#000099;" vertex="1" parent="1">
          <mxGeometry x="469" y="3440" width="20" height="20" as="geometry" />
        </mxCell>
        <mxCell id="JuQyEIjS7z9Mak9PK9wV-88" value="" style="ellipse;whiteSpace=wrap;html=1;aspect=fixed;fillColor=#0000FF;strokeColor=#000099;" vertex="1" parent="1">
          <mxGeometry x="414" y="3450" width="20" height="20" as="geometry" />
        </mxCell>
        <mxCell id="JuQyEIjS7z9Mak9PK9wV-89" value="" style="ellipse;whiteSpace=wrap;html=1;aspect=fixed;fillColor=#0000FF;strokeColor=#000099;" vertex="1" parent="1">
          <mxGeometry x="260" y="3420" width="20" height="20" as="geometry" />
        </mxCell>
        <mxCell id="JuQyEIjS7z9Mak9PK9wV-90" value="" style="ellipse;whiteSpace=wrap;html=1;aspect=fixed;fillColor=#0000FF;strokeColor=#000099;" vertex="1" parent="1">
          <mxGeometry x="295" y="3390" width="20" height="20" as="geometry" />
        </mxCell>
        <mxCell id="JuQyEIjS7z9Mak9PK9wV-91" value="" style="ellipse;whiteSpace=wrap;html=1;aspect=fixed;fillColor=#0000FF;strokeColor=#000099;" vertex="1" parent="1">
          <mxGeometry x="389" y="3420" width="20" height="20" as="geometry" />
        </mxCell>
        <mxCell id="JuQyEIjS7z9Mak9PK9wV-92" value="" style="ellipse;whiteSpace=wrap;html=1;aspect=fixed;fillColor=#0000FF;strokeColor=#000099;" vertex="1" parent="1">
          <mxGeometry x="434" y="3420" width="20" height="20" as="geometry" />
        </mxCell>
        <mxCell id="JuQyEIjS7z9Mak9PK9wV-93" value="" style="ellipse;whiteSpace=wrap;html=1;aspect=fixed;fillColor=#0000FF;strokeColor=#000099;" vertex="1" parent="1">
          <mxGeometry x="469" y="3390" width="20" height="20" as="geometry" />
        </mxCell>
        <mxCell id="JuQyEIjS7z9Mak9PK9wV-94" value="" style="ellipse;whiteSpace=wrap;html=1;aspect=fixed;fillColor=#0000FF;strokeColor=#000099;" vertex="1" parent="1">
          <mxGeometry x="469" y="3350" width="20" height="20" as="geometry" />
        </mxCell>
        <mxCell id="JuQyEIjS7z9Mak9PK9wV-95" value="" style="ellipse;whiteSpace=wrap;html=1;aspect=fixed;fillColor=#0000FF;strokeColor=#000099;" vertex="1" parent="1">
          <mxGeometry x="415" y="3340" width="20" height="20" as="geometry" />
        </mxCell>
        <mxCell id="JuQyEIjS7z9Mak9PK9wV-96" value="" style="ellipse;whiteSpace=wrap;html=1;aspect=fixed;fillColor=#0000FF;strokeColor=#000099;" vertex="1" parent="1">
          <mxGeometry x="419" y="3380" width="20" height="20" as="geometry" />
        </mxCell>
        <mxCell id="JuQyEIjS7z9Mak9PK9wV-97" value="" style="ellipse;whiteSpace=wrap;html=1;aspect=fixed;fillColor=#0000FF;strokeColor=#000099;" vertex="1" parent="1">
          <mxGeometry x="365" y="3380" width="20" height="20" as="geometry" />
        </mxCell>
        <mxCell id="JuQyEIjS7z9Mak9PK9wV-98" value="" style="ellipse;whiteSpace=wrap;html=1;aspect=fixed;fillColor=#0000FF;strokeColor=#000099;" vertex="1" parent="1">
          <mxGeometry x="315" y="3340" width="20" height="20" as="geometry" />
        </mxCell>
        <mxCell id="JuQyEIjS7z9Mak9PK9wV-99" value="" style="ellipse;whiteSpace=wrap;html=1;aspect=fixed;fillColor=#0000FF;strokeColor=#000099;" vertex="1" parent="1">
          <mxGeometry x="230" y="3390" width="20" height="20" as="geometry" />
        </mxCell>
        <mxCell id="JuQyEIjS7z9Mak9PK9wV-100" value="" style="ellipse;whiteSpace=wrap;html=1;aspect=fixed;fillColor=#0000FF;strokeColor=#000099;" vertex="1" parent="1">
          <mxGeometry x="210" y="3350" width="20" height="20" as="geometry" />
        </mxCell>
        <mxCell id="JuQyEIjS7z9Mak9PK9wV-101" value="" style="ellipse;whiteSpace=wrap;html=1;aspect=fixed;fillColor=#0000FF;strokeColor=#000099;" vertex="1" parent="1">
          <mxGeometry x="260" y="3360" width="20" height="20" as="geometry" />
        </mxCell>
        <mxCell id="JuQyEIjS7z9Mak9PK9wV-102" value="" style="ellipse;whiteSpace=wrap;html=1;aspect=fixed;fillColor=#0000FF;strokeColor=#000099;" vertex="1" parent="1">
          <mxGeometry x="240" y="3320" width="20" height="20" as="geometry" />
        </mxCell>
        <mxCell id="JuQyEIjS7z9Mak9PK9wV-103" value="" style="ellipse;whiteSpace=wrap;html=1;aspect=fixed;fillColor=#0000FF;strokeColor=#000099;" vertex="1" parent="1">
          <mxGeometry x="330" y="3380" width="20" height="20" as="geometry" />
        </mxCell>
        <mxCell id="JuQyEIjS7z9Mak9PK9wV-104" value="" style="ellipse;whiteSpace=wrap;html=1;aspect=fixed;fillColor=#0000FF;strokeColor=#000099;" vertex="1" parent="1">
          <mxGeometry x="275" y="3320" width="20" height="20" as="geometry" />
        </mxCell>
        <mxCell id="JuQyEIjS7z9Mak9PK9wV-105" value="" style="rhombus;whiteSpace=wrap;html=1;fillColor=#00FF00;strokeColor=#006633;" vertex="1" parent="1">
          <mxGeometry x="170" y="3340" width="20" height="20" as="geometry" />
        </mxCell>
        <mxCell id="JuQyEIjS7z9Mak9PK9wV-106" value="" style="rhombus;whiteSpace=wrap;html=1;fillColor=#00FF00;strokeColor=#006633;" vertex="1" parent="1">
          <mxGeometry x="374" y="3340" width="20" height="20" as="geometry" />
        </mxCell>
        <mxCell id="JuQyEIjS7z9Mak9PK9wV-107" value="" style="rhombus;whiteSpace=wrap;html=1;fillColor=#00FF00;strokeColor=#006633;" vertex="1" parent="1">
          <mxGeometry x="390" y="3290" width="20" height="20" as="geometry" />
        </mxCell>
        <mxCell id="JuQyEIjS7z9Mak9PK9wV-108" value="" style="rhombus;whiteSpace=wrap;html=1;fillColor=#00FF00;strokeColor=#006633;" vertex="1" parent="1">
          <mxGeometry x="355" y="3260" width="20" height="20" as="geometry" />
        </mxCell>
        <mxCell id="JuQyEIjS7z9Mak9PK9wV-109" value="" style="rhombus;whiteSpace=wrap;html=1;fillColor=#00FF00;strokeColor=#006633;" vertex="1" parent="1">
          <mxGeometry x="305" y="3260" width="20" height="20" as="geometry" />
        </mxCell>
        <mxCell id="JuQyEIjS7z9Mak9PK9wV-110" value="" style="rhombus;whiteSpace=wrap;html=1;fillColor=#00FF00;strokeColor=#006633;" vertex="1" parent="1">
          <mxGeometry x="355" y="3310" width="20" height="20" as="geometry" />
        </mxCell>
        <mxCell id="JuQyEIjS7z9Mak9PK9wV-111" value="" style="rhombus;whiteSpace=wrap;html=1;fillColor=#00FF00;strokeColor=#006633;" vertex="1" parent="1">
          <mxGeometry x="260" y="3260" width="20" height="20" as="geometry" />
        </mxCell>
        <mxCell id="JuQyEIjS7z9Mak9PK9wV-112" value="" style="rhombus;whiteSpace=wrap;html=1;fillColor=#00FF00;strokeColor=#006633;" vertex="1" parent="1">
          <mxGeometry x="320" y="3290" width="20" height="20" as="geometry" />
        </mxCell>
        <mxCell id="JuQyEIjS7z9Mak9PK9wV-113" value="" style="rhombus;whiteSpace=wrap;html=1;fillColor=#00FF00;strokeColor=#006633;" vertex="1" parent="1">
          <mxGeometry x="280" y="3280" width="20" height="20" as="geometry" />
        </mxCell>
        <mxCell id="JuQyEIjS7z9Mak9PK9wV-114" value="" style="rhombus;whiteSpace=wrap;html=1;fillColor=#00FF00;strokeColor=#006633;" vertex="1" parent="1">
          <mxGeometry x="230" y="3280" width="20" height="20" as="geometry" />
        </mxCell>
        <mxCell id="JuQyEIjS7z9Mak9PK9wV-115" value="" style="rhombus;whiteSpace=wrap;html=1;fillColor=#00FF00;strokeColor=#006633;" vertex="1" parent="1">
          <mxGeometry x="200" y="3310" width="20" height="20" as="geometry" />
        </mxCell>
        <mxCell id="JuQyEIjS7z9Mak9PK9wV-116" value="" style="rhombus;whiteSpace=wrap;html=1;fillColor=#00FF00;strokeColor=#006633;" vertex="1" parent="1">
          <mxGeometry x="415" y="3310" width="20" height="20" as="geometry" />
        </mxCell>
        <mxCell id="JuQyEIjS7z9Mak9PK9wV-117" value="" style="rhombus;whiteSpace=wrap;html=1;fillColor=#00FF00;strokeColor=#006633;" vertex="1" parent="1">
          <mxGeometry x="190" y="3380" width="20" height="20" as="geometry" />
        </mxCell>
        <mxCell id="JuQyEIjS7z9Mak9PK9wV-118" value="" style="rhombus;whiteSpace=wrap;html=1;fillColor=#00FF00;strokeColor=#006633;" vertex="1" parent="1">
          <mxGeometry x="435" y="3330" width="20" height="20" as="geometry" />
        </mxCell>
        <mxCell id="JuQyEIjS7z9Mak9PK9wV-119" value="" style="rhombus;whiteSpace=wrap;html=1;fillColor=#00FF00;strokeColor=#006633;" vertex="1" parent="1">
          <mxGeometry x="170" y="3300" width="20" height="20" as="geometry" />
        </mxCell>
        <mxCell id="JuQyEIjS7z9Mak9PK9wV-120" value="" style="rhombus;whiteSpace=wrap;html=1;fillColor=#00FF00;strokeColor=#006633;" vertex="1" parent="1">
          <mxGeometry x="200" y="3420" width="20" height="20" as="geometry" />
        </mxCell>
        <mxCell id="JuQyEIjS7z9Mak9PK9wV-121" value="" style="rhombus;whiteSpace=wrap;html=1;fillColor=#00FF00;strokeColor=#006633;" vertex="1" parent="1">
          <mxGeometry x="230" y="3430" width="20" height="20" as="geometry" />
        </mxCell>
        <mxCell id="JuQyEIjS7z9Mak9PK9wV-122" value="" style="rhombus;whiteSpace=wrap;html=1;fillColor=#00FF00;strokeColor=#006633;" vertex="1" parent="1">
          <mxGeometry x="200" y="3460" width="20" height="20" as="geometry" />
        </mxCell>
        <mxCell id="JuQyEIjS7z9Mak9PK9wV-123" value="" style="rhombus;whiteSpace=wrap;html=1;fillColor=#00FF00;strokeColor=#006633;" vertex="1" parent="1">
          <mxGeometry x="320" y="3410" width="20" height="20" as="geometry" />
        </mxCell>
        <mxCell id="JuQyEIjS7z9Mak9PK9wV-124" value="" style="rhombus;whiteSpace=wrap;html=1;fillColor=#00FF00;strokeColor=#006633;" vertex="1" parent="1">
          <mxGeometry x="355" y="3420" width="20" height="20" as="geometry" />
        </mxCell>
        <mxCell id="JuQyEIjS7z9Mak9PK9wV-125" value="" style="rhombus;whiteSpace=wrap;html=1;fillColor=#00FF00;strokeColor=#006633;" vertex="1" parent="1">
          <mxGeometry x="344" y="3350" width="20" height="20" as="geometry" />
        </mxCell>
        <mxCell id="JuQyEIjS7z9Mak9PK9wV-126" value="" style="rhombus;whiteSpace=wrap;html=1;fillColor=#00FF00;strokeColor=#006633;" vertex="1" parent="1">
          <mxGeometry x="459" y="3300" width="20" height="20" as="geometry" />
        </mxCell>
        <mxCell id="JuQyEIjS7z9Mak9PK9wV-127" value="" style="rhombus;whiteSpace=wrap;html=1;fillColor=#00FF00;strokeColor=#006633;" vertex="1" parent="1">
          <mxGeometry x="499" y="3330" width="20" height="20" as="geometry" />
        </mxCell>
        <mxCell id="JuQyEIjS7z9Mak9PK9wV-128" value="" style="rhombus;whiteSpace=wrap;html=1;fillColor=#00FF00;strokeColor=#006633;" vertex="1" parent="1">
          <mxGeometry x="500" y="3370" width="20" height="20" as="geometry" />
        </mxCell>
        <mxCell id="JuQyEIjS7z9Mak9PK9wV-129" value="" style="rhombus;whiteSpace=wrap;html=1;fillColor=#00FF00;strokeColor=#006633;" vertex="1" parent="1">
          <mxGeometry x="499" y="3420" width="20" height="20" as="geometry" />
        </mxCell>
        <mxCell id="JuQyEIjS7z9Mak9PK9wV-130" value="" style="rhombus;whiteSpace=wrap;html=1;fillColor=#00FF00;strokeColor=#006633;" vertex="1" parent="1">
          <mxGeometry x="530" y="3360" width="20" height="20" as="geometry" />
        </mxCell>
        <mxCell id="JuQyEIjS7z9Mak9PK9wV-131" value="" style="rhombus;whiteSpace=wrap;html=1;fillColor=#00FF00;strokeColor=#006633;" vertex="1" parent="1">
          <mxGeometry x="530" y="3400" width="20" height="20" as="geometry" />
        </mxCell>
        <mxCell id="JuQyEIjS7z9Mak9PK9wV-132" value="" style="rhombus;whiteSpace=wrap;html=1;fillColor=#00FF00;strokeColor=#006633;" vertex="1" parent="1">
          <mxGeometry x="530" y="3440" width="20" height="20" as="geometry" />
        </mxCell>
        <mxCell id="JuQyEIjS7z9Mak9PK9wV-133" value="" style="rhombus;whiteSpace=wrap;html=1;fillColor=#00FF00;strokeColor=#006633;" vertex="1" parent="1">
          <mxGeometry x="180" y="3400" width="20" height="20" as="geometry" />
        </mxCell>
        <mxCell id="JuQyEIjS7z9Mak9PK9wV-134" value="" style="rhombus;whiteSpace=wrap;html=1;fillColor=#00FF00;strokeColor=#006633;" vertex="1" parent="1">
          <mxGeometry x="494" y="3453" width="20" height="20" as="geometry" />
        </mxCell>
        <mxCell id="JuQyEIjS7z9Mak9PK9wV-135" value="" style="rhombus;whiteSpace=wrap;html=1;fillColor=#00FF00;strokeColor=#006633;" vertex="1" parent="1">
          <mxGeometry x="449" y="3470" width="20" height="20" as="geometry" />
        </mxCell>
        <mxCell id="JuQyEIjS7z9Mak9PK9wV-136" value="" style="rhombus;whiteSpace=wrap;html=1;fillColor=#00FF00;strokeColor=#006633;" vertex="1" parent="1">
          <mxGeometry x="390" y="3480" width="20" height="20" as="geometry" />
        </mxCell>
        <mxCell id="JuQyEIjS7z9Mak9PK9wV-137" value="" style="rhombus;whiteSpace=wrap;html=1;fillColor=#00FF00;strokeColor=#006633;" vertex="1" parent="1">
          <mxGeometry x="290" y="3473" width="20" height="20" as="geometry" />
        </mxCell>
        <mxCell id="JuQyEIjS7z9Mak9PK9wV-138" value="" style="rhombus;whiteSpace=wrap;html=1;fillColor=#00FF00;strokeColor=#006633;" vertex="1" parent="1">
          <mxGeometry x="374" y="3450" width="20" height="20" as="geometry" />
        </mxCell>
        <mxCell id="JuQyEIjS7z9Mak9PK9wV-139" value="" style="rhombus;whiteSpace=wrap;html=1;fillColor=#00FF00;strokeColor=#006633;" vertex="1" parent="1">
          <mxGeometry x="340" y="3450" width="20" height="20" as="geometry" />
        </mxCell>
        <mxCell id="JuQyEIjS7z9Mak9PK9wV-140" value="" style="rhombus;whiteSpace=wrap;html=1;fillColor=#00FF00;strokeColor=#006633;" vertex="1" parent="1">
          <mxGeometry x="310" y="3440" width="20" height="20" as="geometry" />
        </mxCell>
        <mxCell id="JuQyEIjS7z9Mak9PK9wV-141" value="" style="rhombus;whiteSpace=wrap;html=1;fillColor=#00FF00;strokeColor=#006633;" vertex="1" parent="1">
          <mxGeometry x="250" y="3460" width="20" height="20" as="geometry" />
        </mxCell>
        <mxCell id="JuQyEIjS7z9Mak9PK9wV-142" value="" style="rhombus;whiteSpace=wrap;html=1;fillColor=#00FF00;strokeColor=#006633;" vertex="1" parent="1">
          <mxGeometry x="285" y="3430" width="20" height="20" as="geometry" />
        </mxCell>
        <mxCell id="JuQyEIjS7z9Mak9PK9wV-143" value="" style="group" vertex="1" connectable="0" parent="1">
          <mxGeometry x="500" y="3520" width="90" height="70" as="geometry" />
        </mxCell>
        <mxCell id="JuQyEIjS7z9Mak9PK9wV-144" value="" style="rounded=0;whiteSpace=wrap;html=1;" vertex="1" parent="JuQyEIjS7z9Mak9PK9wV-143">
          <mxGeometry width="90" height="70" as="geometry" />
        </mxCell>
        <mxCell id="JuQyEIjS7z9Mak9PK9wV-145" value="" style="ellipse;whiteSpace=wrap;html=1;aspect=fixed;fillColor=#0000FF;strokeColor=#000099;" vertex="1" parent="JuQyEIjS7z9Mak9PK9wV-143">
          <mxGeometry x="10" y="10" width="20" height="20" as="geometry" />
        </mxCell>
        <mxCell id="JuQyEIjS7z9Mak9PK9wV-146" value="" style="rhombus;whiteSpace=wrap;html=1;fillColor=#00FF00;strokeColor=#006633;" vertex="1" parent="JuQyEIjS7z9Mak9PK9wV-143">
          <mxGeometry x="10" y="40" width="20" height="20" as="geometry" />
        </mxCell>
        <mxCell id="JuQyEIjS7z9Mak9PK9wV-147" value="Class A" style="text;html=1;strokeColor=none;fillColor=none;align=center;verticalAlign=middle;whiteSpace=wrap;rounded=0;fontStyle=1" vertex="1" parent="JuQyEIjS7z9Mak9PK9wV-143">
          <mxGeometry x="30" y="10" width="60" height="20" as="geometry" />
        </mxCell>
        <mxCell id="JuQyEIjS7z9Mak9PK9wV-148" value="Class B" style="text;html=1;strokeColor=none;fillColor=none;align=center;verticalAlign=middle;whiteSpace=wrap;rounded=0;fontStyle=1" vertex="1" parent="JuQyEIjS7z9Mak9PK9wV-143">
          <mxGeometry x="30" y="40" width="60" height="20" as="geometry" />
        </mxCell>
        <mxCell id="JuQyEIjS7z9Mak9PK9wV-149" value="" style="ellipse;whiteSpace=wrap;html=1;aspect=fixed;fillColor=#FF0000;strokeColor=#CC0000;" vertex="1" parent="1">
          <mxGeometry x="439" y="3400" width="10" height="10" as="geometry" />
        </mxCell>
        <mxCell id="JuQyEIjS7z9Mak9PK9wV-150" value="" style="ellipse;whiteSpace=wrap;html=1;aspect=fixed;fillColor=#FF0000;strokeColor=#CC0000;" vertex="1" parent="1">
          <mxGeometry x="275" y="3375" width="10" height="10" as="geometry" />
        </mxCell>
        <mxCell id="JuQyEIjS7z9Mak9PK9wV-151" value="Landmark #2" style="text;html=1;align=center;verticalAlign=middle;whiteSpace=wrap;rounded=0;strokeColor=none;fontStyle=1;fontColor=#FF0000;" vertex="1" parent="1">
          <mxGeometry x="390" y="3360" width="140" height="30" as="geometry" />
        </mxCell>
        <mxCell id="JuQyEIjS7z9Mak9PK9wV-152" value="Landmark #1" style="text;html=1;align=center;verticalAlign=middle;whiteSpace=wrap;rounded=0;strokeColor=none;fontStyle=1;fontColor=#FF0000;" vertex="1" parent="1">
          <mxGeometry x="205" y="3335" width="140" height="30" as="geometry" />
        </mxCell>
      </root>
    </mxGraphModel>
  </diagram>
</mxfile>
